<svg xmlns="http://www.w3.org/2000/svg" viewBox="0 0 39.93 6.91"><defs><style>.cls-1{opacity:0.7;}.cls-2{fill:#f2dada;}</style></defs><g id="Layer_2" data-name="Layer 2"><g id="Layer_1-2" data-name="Layer 1"><g class="cls-1"><rect class="cls-2" width="39.93" height="6.91" rx="2.21"/></g><path d="M3.62,2.23a1.26,1.26,0,0,1,.9.28,1.14,1.14,0,0,1,.29.87V5.22H4.5V3.37a.94.94,0,0,0-.21-.68.94.94,0,0,0-.67-.2H3.17A1,1,0,0,0,3,2.86a1.7,1.7,0,0,0-.07.51V4.46A.82.82,0,0,1,2.75,5a.67.67,0,0,1-.52.19H2.1L2,5.21V5h.19a.42.42,0,0,0,.35-.13.62.62,0,0,0,.11-.4V3.39a1.7,1.7,0,0,1,.07-.51,1,1,0,0,1,.19-.39H2.26V2.23Z"/><path d="M5.4,2.23H7.75v.26h-.5V5.22H6.94V2.49H5.4Z"/><path d="M8.15,2.49V1.28h.32v1h1.78v.26Zm2.23-.07L9.21,5.22H8.86l1.27-3h.25Z"/><path d="M11.27,5.22V2.49h-.4V2.23h.72v3Z"/><path d="M14.41,5.22V3.37a.94.94,0,0,0-.21-.68,1,1,0,0,0-.68-.2h-1V2.23h1a1.26,1.26,0,0,1,.9.28,1.12,1.12,0,0,1,.3.86V5.22Zm-1.91,0v-1a1.77,1.77,0,0,1,0-.37,2,2,0,0,1,.08-.26h.27a1.86,1.86,0,0,0-.05.27,3.21,3.21,0,0,0,0,.36v1Z"/><path d="M16.94,5.22v-3h2.35v3ZM17.25,5H19V2.49H17.25Z"/><path d="M20.43,5.22V2.49H20V2.23h.72v3Z"/><path d="M22,3.88V2.49h-.6V2.23h.92V3.88Z"/><path d="M25.52,5.22V5a1,1,0,0,0,.67-.25.78.78,0,0,0,.25-.61V2.49H24.51V2.23h2.25V4.1a1.15,1.15,0,0,1-.15.59,1.06,1.06,0,0,1-.43.38A1.69,1.69,0,0,1,25.52,5.22Zm-.94,1.06V4.06a1.77,1.77,0,0,1,0-.37,1.83,1.83,0,0,1,.08-.25H25a1.1,1.1,0,0,0-.06.26c0,.1,0,.21,0,.36V6.28Z"/><path d="M28,3.88V2.49h-.6V2.23h.92V3.88Z"/><path d="M29.36,5.27h-.23l-.22,0,0-.25a2.13,2.13,0,0,0,.39,0,.42.42,0,0,0,.34-.13.59.59,0,0,0,.12-.41v-2h-.67V2.23h1V4.49a.78.78,0,0,1-.19.58A.74.74,0,0,1,29.36,5.27Z"/><path d="M32.05,5.22V5a1,1,0,0,0,.66-.25A.79.79,0,0,0,33,4.1V2.49H31V2.23h2.25V4.1a1.15,1.15,0,0,1-.15.59,1.06,1.06,0,0,1-.43.38A1.69,1.69,0,0,1,32.05,5.22ZM31.1,6.28V4.06a1.22,1.22,0,0,1,0-.37,1.82,1.82,0,0,1,.07-.25h.28a1.1,1.1,0,0,0-.06.26c0,.1,0,.21,0,.36V6.28Z"/><path d="M34.52,3.88V2.49h-.6V2.23h.92V3.88Z"/><path d="M36.72,5.26a2.32,2.32,0,0,1-.44,0,4.21,4.21,0,0,1-.48-.12l.07-.24a2.42,2.42,0,0,0,.45.1l.4,0a1,1,0,0,0,.71-.23.82.82,0,0,0,.25-.65V2.49H36.31a1.15,1.15,0,0,0-.17.4,1.61,1.61,0,0,0-.07.49v.26a.65.65,0,0,0,.21.06h.33V4l-.36,0a1,1,0,0,1-.26,0l-.23-.1v-.4a1.88,1.88,0,0,1,.08-.52,1.17,1.17,0,0,1,.2-.42h-.35V2.23H38V4a1.42,1.42,0,0,1-.16.68,1,1,0,0,1-.45.4A1.41,1.41,0,0,1,36.72,5.26Z"/></g></g></svg>