<?xml version="1.0" standalone="no"?>
<!DOCTYPE svg PUBLIC "-//W3C//DTD SVG 20010904//EN"
 "http://www.w3.org/TR/2001/REC-SVG-20010904/DTD/svg10.dtd">
<svg version="1.0" xmlns="http://www.w3.org/2000/svg"
 width="77.000000pt" height="77.000000pt" viewBox="0 0 77.000000 77.000000"
 preserveAspectRatio="xMidYMid meet">

<g transform="translate(0.000000,77.000000) scale(0.100000,-0.100000)"
fill="#000000" stroke="none">
<path d="M428 613 c23 -2 59 -2 80 0 20 2 1 4 -43 4 -44 0 -61 -2 -37 -4z"/>
<path d="M305 600 c-25 -11 1 -11 35 0 20 6 21 8 5 8 -11 0 -29 -3 -40 -8z"/>
<path d="M560 606 c0 -2 7 -7 16 -10 8 -3 12 -2 9 4 -6 10 -25 14 -25 6z"/>
<path d="M250 580 c-8 -5 -10 -10 -5 -10 6 0 17 5 25 10 8 5 11 10 5 10 -5 0
-17 -5 -25 -10z"/>
<path d="M655 530 c19 -28 35 -57 35 -63 0 -6 3 -8 6 -4 8 7 -38 88 -61 107
-9 7 0 -11 20 -40z"/>
<path d="M170 539 c-45 -31 -110 -96 -110 -113 0 -5 10 4 22 20 34 44 43 52
100 89 29 19 48 35 43 35 -6 0 -30 -14 -55 -31z"/>
<path d="M386 498 c-13 -28 -21 -36 -27 -27 -4 7 -5 17 -2 23 3 5 1 6 -5 2 -9
-5 -9 -13 -1 -27 8 -15 7 -24 -2 -35 -6 -8 -10 -17 -7 -20 3 -2 21 22 41 55
20 33 33 62 29 65 -4 2 -15 -14 -26 -36z"/>
<path d="M431 518 c-13 -20 -12 -22 1 -11 8 7 18 10 22 6 4 -4 4 0 0 10 -8 21
-6 21 -23 -5z"/>
<path d="M365 510 c3 -5 8 -10 11 -10 2 0 4 5 4 10 0 6 -5 10 -11 10 -5 0 -7
-4 -4 -10z"/>
<path d="M241 455 c-2 -11 -5 -15 -8 -7 -8 19 -23 14 -23 -8 0 -11 -4 -20 -10
-20 -5 0 -10 -7 -10 -15 0 -7 -8 -19 -17 -24 -10 -6 -13 -11 -6 -11 7 0 20 9
30 19 21 22 105 29 97 8 -5 -15 -83 -52 -101 -48 -18 3 -16 -3 16 -55 l29 -47
7 52 c8 57 37 90 62 69 7 -6 13 -7 13 -3 0 19 29 -20 35 -46 9 -41 22 -44 39
-10 9 16 24 37 33 47 17 17 17 17 -7 11 -14 -4 -31 -7 -39 -7 -11 0 -10 -4 5
-16 10 -8 13 -12 5 -8 -11 5 -13 3 -8 -10 5 -12 3 -16 -5 -13 -7 2 -12 16 -12
30 1 21 -3 27 -18 27 -14 0 -18 5 -14 15 3 8 1 15 -3 15 -5 0 -16 17 -25 38
-9 20 -16 28 -15 17 2 -34 -1 -41 -11 -25 -6 10 -10 11 -10 3 0 -25 -19 -13
-23 15 -3 19 -5 21 -6 7z m79 -71 c0 -8 -4 -12 -10 -9 -5 3 -10 10 -10 16 0 5
5 9 10 9 6 0 10 -7 10 -16z m-82 -56 c-2 -12 -10 -23 -18 -25 -13 -4 -13 -3 0
6 13 9 12 11 -3 11 -15 0 -16 2 -5 15 19 21 30 18 26 -7z"/>
<path d="M480 450 c0 -5 5 -10 11 -10 5 0 7 5 4 10 -3 6 -8 10 -11 10 -2 0 -4
-4 -4 -10z"/>
<path d="M441 447 c2 -1 13 -9 24 -17 19 -14 19 -14 6 3 -7 9 -18 17 -24 17
-6 0 -8 -1 -6 -3z"/>
<path d="M701 424 c0 -11 3 -14 6 -6 3 7 2 16 -1 19 -3 4 -6 -2 -5 -13z"/>
<path d="M46 395 c-3 -9 -6 -24 -5 -33 0 -9 5 -4 10 12 9 32 6 48 -5 21z"/>
<path d="M713 360 c0 -25 2 -35 4 -22 2 12 2 32 0 45 -2 12 -4 2 -4 -23z"/>
<path d="M360 380 c8 -5 22 -9 30 -9 10 0 8 3 -5 9 -27 12 -43 12 -25 0z"/>
<path d="M135 359 c-4 -6 -5 -12 -2 -15 2 -3 7 2 10 11 7 17 1 20 -8 4z"/>
<path d="M280 356 c0 -2 7 -7 16 -10 8 -3 12 -2 9 4 -6 10 -25 14 -25 6z"/>
<path d="M40 294 c0 -10 5 -26 10 -34 8 -11 9 -7 4 15 -8 37 -14 45 -14 19z"/>
<path d="M711 237 c-3 -56 -28 -97 -73 -117 -24 -11 -36 -20 -28 -20 52 0 116
82 107 139 l-4 26 -2 -28z"/>
<path d="M80 210 c12 -16 24 -30 26 -30 3 0 -4 14 -16 30 -12 17 -24 30 -26
30 -3 0 4 -13 16 -30z"/>
<path d="M575 169 c-4 -6 -5 -12 -2 -15 2 -3 7 2 10 11 7 17 1 20 -8 4z"/>
<path d="M236 162 c5 -4 50 -5 99 -2 l90 7 -99 1 c-55 1 -96 -2 -90 -6z"/>
<path d="M157 149 c7 -7 15 -10 18 -7 3 3 -2 9 -12 12 -14 6 -15 5 -6 -5z"/>
<path d="M200 130 c8 -5 20 -10 25 -10 6 0 3 5 -5 10 -8 5 -19 10 -25 10 -5 0
-3 -5 5 -10z"/>
<path d="M248 113 c7 -3 16 -2 19 1 4 3 -2 6 -13 5 -11 0 -14 -3 -6 -6z"/>
<path d="M288 103 c6 -2 18 -2 25 0 6 3 1 5 -13 5 -14 0 -19 -2 -12 -5z"/>
<path d="M393 93 c37 -2 96 -2 130 0 34 2 4 3 -68 3 -72 0 -99 -1 -62 -3z"/>
</g>
</svg>
