<?xml version="1.0" standalone="no"?>
<!DOCTYPE svg PUBLIC "-//W3C//DTD SVG 20010904//EN"
 "http://www.w3.org/TR/2001/REC-SVG-20010904/DTD/svg10.dtd">
<svg version="1.0" xmlns="http://www.w3.org/2000/svg"
 width="77.000000pt" height="77.000000pt" viewBox="0 0 77.000000 77.000000"
 preserveAspectRatio="xMidYMid meet">

<g transform="translate(0.000000,77.000000) scale(0.100000,-0.100000)"
fill="#000000" stroke="none">
<path d="M448 733 c12 -2 32 -2 45 0 12 2 2 4 -23 4 -25 0 -35 -2 -22 -4z"/>
<path d="M318 706 c-178 -73 -300 -215 -296 -346 l1 -55 7 65 c8 83 47 156
115 219 61 55 151 105 226 125 31 9 43 15 29 15 -14 0 -51 -10 -82 -23z"/>
<path d="M557 709 c45 -22 87 -68 121 -134 12 -22 21 -35 22 -30 0 6 -15 35
-32 65 -34 56 -107 120 -136 120 -9 0 2 -9 25 -21z"/>
<path d="M320 630 c-9 -6 -10 -10 -3 -10 6 0 15 5 18 10 8 12 4 12 -15 0z"/>
<path d="M254 586 c-3 -8 -4 -23 -2 -33 3 -11 6 -6 9 15 6 34 2 42 -7 18z"/>
<path d="M704 513 c4 -12 13 -50 21 -85 7 -35 14 -52 14 -38 1 29 -24 129 -35
139 -3 3 -3 -4 0 -16z"/>
<path d="M202 460 c0 -14 2 -19 5 -12 2 6 2 18 0 25 -3 6 -5 1 -5 -13z"/>
<path d="M428 473 c7 -3 16 -2 19 1 4 3 -2 6 -13 5 -11 0 -14 -3 -6 -6z"/>
<path d="M348 463 c6 -2 18 -2 25 0 6 3 1 5 -13 5 -14 0 -19 -2 -12 -5z"/>
<path d="M495 461 c-3 -5 -1 -12 5 -16 5 -3 10 1 10 9 0 18 -6 21 -15 7z"/>
<path d="M190 411 c0 -11 4 -22 9 -25 4 -3 6 6 3 19 -5 30 -12 33 -12 6z"/>
<path d="M355 410 c3 -5 8 -10 11 -10 2 0 4 5 4 10 0 6 -5 10 -11 10 -5 0 -7
-4 -4 -10z"/>
<path d="M591 404 c0 -11 3 -14 6 -6 3 7 2 16 -1 19 -3 4 -6 -2 -5 -13z"/>
<path d="M488 383 c7 -3 16 -2 19 1 4 3 -2 6 -13 5 -11 0 -14 -3 -6 -6z"/>
<path d="M742 289 c-2 -59 -8 -87 -27 -125 -21 -39 -22 -44 -5 -24 30 37 42
87 38 160 l-4 65 -2 -76z"/>
<path d="M30 289 c-1 -51 117 -165 190 -183 14 -4 2 5 -26 19 -64 32 -121 86
-145 139 -10 23 -19 34 -19 25z"/>
<path d="M667 113 c-4 -3 -28 -12 -54 -19 -27 -7 -38 -13 -25 -13 24 -1 92 24
92 33 0 8 -5 7 -13 -1z"/>
<path d="M258 93 c7 -3 16 -2 19 1 4 3 -2 6 -13 5 -11 0 -14 -3 -6 -6z"/>
<path d="M298 83 c6 -2 18 -2 25 0 6 3 1 5 -13 5 -14 0 -19 -2 -12 -5z"/>
<path d="M392 73 c32 -2 84 -2 115 0 32 2 6 3 -57 3 -63 0 -89 -1 -58 -3z"/>
</g>
</svg>
