<svg xmlns="http://www.w3.org/2000/svg" viewBox="0 0 36.86 6.91"><defs><style>.cls-1{opacity:0.7;}.cls-2{fill:#f2dada;}</style></defs><g id="Layer_2" data-name="Layer 2"><g id="Layer_1-2" data-name="Layer 1"><g class="cls-1"><rect class="cls-2" width="36.86" height="6.91" rx="2.21"/></g><path d="M2.43,3.88V2.49h-.6V2.23h.92V3.88Z"/><path d="M4.84,2.23a1.23,1.23,0,0,1,.9.28,1.15,1.15,0,0,1,.3.87V5.22H5.72V3.37a1,1,0,0,0-.2-.68,1,1,0,0,0-.67-.2H4.39a1.16,1.16,0,0,0-.17.37,2.09,2.09,0,0,0-.07.51V4.46A.87.87,0,0,1,4,5a.69.69,0,0,1-.53.19H3.32l-.12,0V5h.18a.46.46,0,0,0,.36-.13.62.62,0,0,0,.1-.4V3.39a1.7,1.7,0,0,1,.08-.51.89.89,0,0,1,.19-.39H3.48V2.23Z"/><path d="M7,5.22v-3H8a1.26,1.26,0,0,1,.9.28,1.18,1.18,0,0,1,.29.87V5.22H8.9V3.37a.94.94,0,0,0-.21-.68A1,1,0,0,0,8,2.49H7.28V5.22Z"/><path d="M11.08,5.26a2.39,2.39,0,0,1-.44,0,4.05,4.05,0,0,1-.47-.12l.06-.24a2.62,2.62,0,0,0,.45.1l.4,0a1,1,0,0,0,.71-.23.83.83,0,0,0,.26-.65V2.49H10.67a1.15,1.15,0,0,0-.17.4,2,2,0,0,0-.06.49v.26a.59.59,0,0,0,.2.06H11V4l-.36,0a.93.93,0,0,1-.25,0l-.24-.1v-.4a1.86,1.86,0,0,1,.07-.52,1.37,1.37,0,0,1,.2-.42H10V2.23h2.32V4a1.32,1.32,0,0,1-.16.68,1,1,0,0,1-.45.4A1.41,1.41,0,0,1,11.08,5.26Z"/><path d="M13.64,2.23V4.78a2.69,2.69,0,0,0,.55.17,2.74,2.74,0,0,0,.56.06,2,2,0,0,0,.67-.1,1.13,1.13,0,0,0,.49-.32.84.84,0,0,0,.18-.54V2.23h.31V4.07a1,1,0,0,1-.13.53,1.19,1.19,0,0,1-.36.38,1.64,1.64,0,0,1-.52.23,3.2,3.2,0,0,1-.63.07A3.69,3.69,0,0,1,14,5.2,4.56,4.56,0,0,1,13.33,5V2.23Zm.82,2.24a.62.62,0,0,0,.18-.28,1.22,1.22,0,0,0,.06-.41V2.23H15V3.74a1.31,1.31,0,0,1-.06.43.77.77,0,0,1-.22.32Z"/><path d="M17.34,5.22l.25-2a1.17,1.17,0,0,1,.13-.4A1,1,0,0,1,18,2.52l0,0h0l-.31.06-.39.11-.08-.24a2.7,2.7,0,0,1,.43-.12l.46-.08.43,0a1.17,1.17,0,0,1,.88.31,1.19,1.19,0,0,1,.31.9V5.22H18.55V5h.9V3.36a1,1,0,0,0-.22-.68.82.82,0,0,0-.63-.22.62.62,0,0,0-.46.19.87.87,0,0,0-.23.54l-.26,2Z"/><path d="M23,5.22V5a1,1,0,0,0,.67-.25.78.78,0,0,0,.25-.61V2.49H21.94V2.23h2.25V4.1a1.15,1.15,0,0,1-.15.59,1,1,0,0,1-.43.38A1.69,1.69,0,0,1,23,5.22ZM22,6.28V4.06a1.77,1.77,0,0,1,0-.37,1.83,1.83,0,0,1,.08-.25h.27a1.09,1.09,0,0,0-.05.26,3.36,3.36,0,0,0,0,.36V6.28Z"/><path d="M25.42,3.88V2.49h-.59V2.23h.91V3.88Z"/><path d="M26.8,5.27h-.24l-.21,0,0-.25a2,2,0,0,0,.38,0,.41.41,0,0,0,.34-.13.59.59,0,0,0,.12-.41v-2h-.67V2.23h1V4.49a.78.78,0,0,1-.19.58A.7.7,0,0,1,26.8,5.27Z"/><path d="M29.48,5.22V5a1,1,0,0,0,.67-.25.78.78,0,0,0,.25-.61V2.49H28.47V2.23h2.25V4.1a1.15,1.15,0,0,1-.15.59,1,1,0,0,1-.43.38A1.69,1.69,0,0,1,29.48,5.22Zm-.94,1.06V4.06a1.77,1.77,0,0,1,0-.37,1.83,1.83,0,0,1,.08-.25h.27a1.1,1.1,0,0,0-.06.26c0,.1,0,.21,0,.36V6.28Z"/><path d="M32,3.88V2.49h-.6V2.23h.92V3.88Z"/><path d="M34.15,5.26a2.32,2.32,0,0,1-.44,0,3.59,3.59,0,0,1-.47-.12l.06-.24a2.42,2.42,0,0,0,.45.1l.4,0a1,1,0,0,0,.71-.23.82.82,0,0,0,.25-.65V2.49H33.74a1.15,1.15,0,0,0-.17.4,2,2,0,0,0-.07.49v.26a.65.65,0,0,0,.21.06H34V4l-.36,0a.93.93,0,0,1-.25,0l-.24-.1v-.4a1.86,1.86,0,0,1,.07-.52,1.37,1.37,0,0,1,.2-.42h-.35V2.23h2.32V4a1.32,1.32,0,0,1-.16.68,1,1,0,0,1-.45.4A1.41,1.41,0,0,1,34.15,5.26Z"/></g></g></svg>