<svg xmlns="http://www.w3.org/2000/svg" viewBox="0 0 36.86 6.91"><defs><style>.cls-1{opacity:0.7;}.cls-2{fill:#f2dada;}</style></defs><g id="Layer_2" data-name="Layer 2"><g id="Layer_1-2" data-name="Layer 1"><g class="cls-1"><rect class="cls-2" width="36.86" height="6.91" rx="2.21"/></g><path d="M6,2.23a1.23,1.23,0,0,1,.9.28,1.15,1.15,0,0,1,.3.87V5.22H6.83V3.37a1,1,0,0,0-.2-.68A1,1,0,0,0,6,2.49H5.5a1.16,1.16,0,0,0-.17.37,2.09,2.09,0,0,0-.07.51V4.46A.87.87,0,0,1,5.09,5a.69.69,0,0,1-.53.19H4.43l-.12,0V5h.18a.46.46,0,0,0,.36-.13.6.6,0,0,0,.1-.4V3.39A1.75,1.75,0,0,1,5,2.88a.89.89,0,0,1,.19-.39H4.6V2.23Z"/><path d="M8.24,5.22V2.49h-.4V2.23h.72v3Z"/><path d="M10.88,5.22V3.08a.56.56,0,0,0-.16-.43.6.6,0,0,0-.44-.16H9.2V2.23h1.08a1,1,0,0,1,.67.23.84.84,0,0,1,.25.65V5.22Z"/><path d="M11.8,5.22V5h1.76l.31,0,.38,0v.25Zm1.76-.07V3.37a.94.94,0,0,0-.21-.68,1,1,0,0,0-.69-.2H12V2.23h.7a1.27,1.27,0,0,1,.91.28,1.18,1.18,0,0,1,.29.86V5.15Z"/><path d="M14.87,5.22v-3h1.06a1.26,1.26,0,0,1,.9.28,1.18,1.18,0,0,1,.29.87V5.22h-.31V3.37a.94.94,0,0,0-.21-.68,1,1,0,0,0-.67-.2h-.74V5.22Z"/><path d="M20.32,5.22V5A1,1,0,0,0,21,4.71a.77.77,0,0,0,.26-.61V2.49H19.32V2.23h2.24V4.1a1.15,1.15,0,0,1-.15.59,1,1,0,0,1-.43.38A1.61,1.61,0,0,1,20.32,5.22Zm-.94,1.06V4.06a1.77,1.77,0,0,1,0-.37,1.83,1.83,0,0,1,.08-.25h.27a2,2,0,0,0-.05.26,3.36,3.36,0,0,0,0,.36V6.28Z"/><path d="M22.8,3.88V2.49h-.6V2.23h.92V3.88Z"/><path d="M24.17,5.27h-.24l-.21,0,0-.25a2,2,0,0,0,.38,0,.45.45,0,0,0,.35-.13.59.59,0,0,0,.12-.41v-2h-.68V2.23h1V4.49a.82.82,0,0,1-.18.58A.74.74,0,0,1,24.17,5.27Z"/><path d="M26.85,5.22V5a1,1,0,0,0,.67-.25.76.76,0,0,0,.25-.61V2.49H25.85V2.23h2.24V4.1a1.15,1.15,0,0,1-.15.59,1,1,0,0,1-.43.38A1.61,1.61,0,0,1,26.85,5.22Zm-.94,1.06V4.06a1.77,1.77,0,0,1,0-.37A1.83,1.83,0,0,1,26,3.44h.27a2,2,0,0,0-.05.26,3.36,3.36,0,0,0,0,.36V6.28Z"/><path d="M29.33,3.88V2.49h-.6V2.23h.91V3.88Z"/><path d="M31.52,5.26a2.39,2.39,0,0,1-.44,0l-.47-.12.06-.24a2.72,2.72,0,0,0,.46.1l.39,0a1,1,0,0,0,.71-.23.83.83,0,0,0,.26-.65V2.49H31.11a1.37,1.37,0,0,0-.17.4,2,2,0,0,0-.06.49v.26a.66.66,0,0,0,.2.06h.34V4h-.36l-.26,0-.24-.1V3.44a1.93,1.93,0,0,1,.07-.53,1.37,1.37,0,0,1,.2-.42h-.34V2.23H32.8V4a1.32,1.32,0,0,1-.16.68,1,1,0,0,1-.44.4A1.45,1.45,0,0,1,31.52,5.26Z"/></g></g></svg>