<svg xmlns="http://www.w3.org/2000/svg" viewBox="0 0 36.86 6.91"><defs><style>.cls-1{opacity:0.7;}.cls-2{fill:#f2dada;}</style></defs><g id="Layer_2" data-name="Layer 2"><g id="Layer_1-2" data-name="Layer 1"><g class="cls-1"><rect class="cls-2" width="36.86" height="6.91" rx="2.21"/></g><path d="M6.23,5.22V3.37A.94.94,0,0,0,6,2.69a1,1,0,0,0-.68-.2h-1V2.23h1a1.25,1.25,0,0,1,.9.28,1.14,1.14,0,0,1,.3.86V5.22Zm-1.9,0v-1a1.77,1.77,0,0,1,0-.37,2,2,0,0,1,.08-.26h.27a1.18,1.18,0,0,0-.06.27c0,.1,0,.21,0,.36v1Z"/><path d="M7.59,5.27H7.35l-.21,0,0-.25a2,2,0,0,0,.38,0,.43.43,0,0,0,.35-.13A.59.59,0,0,0,8,4.46v-2H7.34V2.23h1V4.49a.82.82,0,0,1-.19.58A.74.74,0,0,1,7.59,5.27Z"/><path d="M10.46,5.27a1.31,1.31,0,0,1-.61-.14,1.08,1.08,0,0,1-.41-.41,1.27,1.27,0,0,1-.14-.6V2.23h.31V4.12a.88.88,0,0,0,.24.64.78.78,0,0,0,.61.25.79.79,0,0,0,.61-.25.91.91,0,0,0,.23-.64V3a.68.68,0,0,0-.11-.42.41.41,0,0,0-.34-.15.91.91,0,0,0-.23,0l-.22.09-.07-.23a1.48,1.48,0,0,1,.29-.12,1.36,1.36,0,0,1,.3,0,.66.66,0,0,1,.52.21.91.91,0,0,1,.18.61v1.1a1.16,1.16,0,0,1-.15.6,1,1,0,0,1-.4.41A1.31,1.31,0,0,1,10.46,5.27Z"/><path d="M13.49,5.22V5a1,1,0,0,0,.67-.25.76.76,0,0,0,.25-.61V2.49H12.48V2.23h2.25V4.1a1.15,1.15,0,0,1-.15.59,1.06,1.06,0,0,1-.43.38A1.69,1.69,0,0,1,13.49,5.22Zm-.94,1.06V4.06a1.77,1.77,0,0,1,0-.37,1.83,1.83,0,0,1,.08-.25h.27a1.1,1.1,0,0,0-.06.26c0,.1,0,.21,0,.36V6.28Z"/><path d="M15.38,5.22V5h1.76l.31,0,.38,0v.25Zm1.76-.07V3.37a.94.94,0,0,0-.21-.68,1,1,0,0,0-.69-.2h-.69V2.23h.7a1.27,1.27,0,0,1,.91.28,1.18,1.18,0,0,1,.29.86V5.15Z"/><path d="M20.73,5.22V5a1,1,0,0,0,.66-.25.77.77,0,0,0,.26-.61V2.49H19.72V2.23H22V4.1a1.15,1.15,0,0,1-.15.59,1.06,1.06,0,0,1-.43.38A1.69,1.69,0,0,1,20.73,5.22Zm-.94,1.06V4.06a1.77,1.77,0,0,1,0-.37,1.82,1.82,0,0,1,.07-.25h.28a1.1,1.1,0,0,0-.06.26c0,.1,0,.21,0,.36V6.28Z"/><path d="M23.2,3.88V2.49h-.6V2.23h.92V3.88Z"/><path d="M24.57,5.27h-.24l-.21,0,0-.25a2.06,2.06,0,0,0,.39,0,.42.42,0,0,0,.34-.13A.59.59,0,0,0,25,4.46v-2h-.67V2.23h1V4.49a.82.82,0,0,1-.19.58A.74.74,0,0,1,24.57,5.27Z"/><path d="M27.25,5.22V5a1,1,0,0,0,.67-.25.77.77,0,0,0,.26-.61V2.49H26.25V2.23h2.24V4.1a1.15,1.15,0,0,1-.15.59,1,1,0,0,1-.43.38A1.61,1.61,0,0,1,27.25,5.22Zm-.94,1.06V4.06a1.77,1.77,0,0,1,0-.37c0-.09.05-.17.08-.25h.27a2,2,0,0,0-.05.26,3.36,3.36,0,0,0,0,.36V6.28Z"/><path d="M29.73,3.88V2.49h-.6V2.23h.92V3.88Z"/><path d="M31.93,5.26a2.25,2.25,0,0,1-.44,0A4.21,4.21,0,0,1,31,5.1l.06-.24a2.72,2.72,0,0,0,.46.1l.4,0a1,1,0,0,0,.71-.23.82.82,0,0,0,.25-.65V2.49H31.52a1.15,1.15,0,0,0-.17.4,1.61,1.61,0,0,0-.07.49v.26a.66.66,0,0,0,.2.06h.34V4h-.36l-.26,0L31,3.83V3.44A2,2,0,0,1,31,2.91a1.36,1.36,0,0,1,.19-.42h-.34V2.23h2.32V4a1.42,1.42,0,0,1-.16.68,1,1,0,0,1-.45.4A1.44,1.44,0,0,1,31.93,5.26Z"/></g></g></svg>