<svg xmlns="http://www.w3.org/2000/svg" viewBox="0 0 39.93 6.91"><defs><style>.cls-1{opacity:0.7;}.cls-2{fill:#f2dada;}</style></defs><g id="Layer_2" data-name="Layer 2"><g id="Layer_1-2" data-name="Layer 1"><g class="cls-1"><rect class="cls-2" width="39.93" height="6.91" rx="2.21"/></g><path d="M5.6,5.22v-3H7.94v3ZM5.91,5H7.63V2.49H5.91Z"/><path d="M9.18,3.88V2.49h-.6V2.23H9.5V3.88Z"/><path d="M10.4,5.22l.25-2a1.44,1.44,0,0,1,.13-.4A.85.85,0,0,1,11,2.52l0,0h0l-.31.06-.38.11-.09-.24a2.83,2.83,0,0,1,.44-.12l.46-.08.42,0a1.23,1.23,0,0,1,.89.31,1.24,1.24,0,0,1,.31.9V5.22H11.61V5h.9V3.36a.94.94,0,0,0-.22-.68.81.81,0,0,0-.62-.22.61.61,0,0,0-.47.2,1,1,0,0,0-.23.53l-.25,2Z"/><path d="M13.91,5.22V2.49h-.4V2.23h.72v3Z"/><path d="M16.18,5.22V5a1,1,0,0,0,.66-.25.77.77,0,0,0,.26-.61V2.49H15.17V2.23h2.25V4.1a1.15,1.15,0,0,1-.15.59,1.06,1.06,0,0,1-.43.38A1.69,1.69,0,0,1,16.18,5.22Zm-.95,1.06V4.06a1.22,1.22,0,0,1,0-.37,1.82,1.82,0,0,1,.07-.25h.28a1.1,1.1,0,0,0-.06.26c0,.1,0,.21,0,.36V6.28Z"/><path d="M18.65,3.88V2.49h-.6V2.23H19V3.88Z"/><path d="M19.87,5.22l.25-2a1.44,1.44,0,0,1,.13-.4.85.85,0,0,1,.25-.28l0,0h0l-.31.06-.38.11-.09-.24a2.83,2.83,0,0,1,.44-.12l.46-.08.42,0a1.23,1.23,0,0,1,.89.31,1.24,1.24,0,0,1,.31.9V5.22H21.08V5H22V3.36a.94.94,0,0,0-.22-.68.81.81,0,0,0-.62-.22.6.6,0,0,0-.47.2,1,1,0,0,0-.23.53l-.25,2Z"/><path d="M25.05,5.22V3.37a.94.94,0,0,0-.21-.68,1,1,0,0,0-.68-.2h-1V2.23h1a1.26,1.26,0,0,1,.9.28,1.14,1.14,0,0,1,.3.86V5.22Zm-1.91,0v-1a1.66,1.66,0,0,1,0-.37,1.12,1.12,0,0,1,.08-.26h.27a1.18,1.18,0,0,0-.06.27c0,.1,0,.21,0,.36v1Z"/><path d="M27.35,2.49V1.28h.31v1h1.78v.26Zm2.23-.07L28.4,5.22h-.34l1.27-3h.25Z"/><path d="M30.89,5.26a2.95,2.95,0,0,1-.84-.15l.06-.24a2.32,2.32,0,0,0,.78.12,1,1,0,0,0,.69-.23.84.84,0,0,0,.25-.65V2.49h-1.7V2.23h2V4a1.29,1.29,0,0,1-.16.68,1,1,0,0,1-.43.41A1.54,1.54,0,0,1,30.89,5.26Z"/><path d="M32.87,2.49V1.28h.32v1H35v.26Zm2.23-.07-1.17,2.8h-.35l1.27-3h.25Z"/></g></g></svg>