<svg xmlns="http://www.w3.org/2000/svg" viewBox="0 0 39.93 6.91"><defs><style>.cls-1{opacity:0.7;}.cls-2{fill:#f2dada;}</style></defs><g id="Layer_2" data-name="Layer 2"><g id="Layer_1-2" data-name="Layer 1"><g class="cls-1"><rect class="cls-2" width="39.93" height="6.91" rx="2.21"/></g><path d="M5.63,5.22v-3H8v3ZM6,5H7.66V2.49H6Z"/><path d="M9.22,3.88V2.49h-.6V2.23h.91V3.88Z"/><path d="M10.59,5.27h-.24l-.21,0,0-.25a2,2,0,0,0,.38,0,.45.45,0,0,0,.35-.13A.65.65,0,0,0,11,4.46v-2h-.67V2.23h1V4.49a.78.78,0,0,1-.19.58A.7.7,0,0,1,10.59,5.27Z"/><path d="M12.47,5.22V2.49h-.4V2.23h.72v3Z"/><path d="M14.36,5.26a2.85,2.85,0,0,1-.4,0,2.57,2.57,0,0,1-.44-.11l.05-.24a2.41,2.41,0,0,0,.79.12,1,1,0,0,0,.69-.23.84.84,0,0,0,.25-.65V2.49H13.6V2.23h2V4a1.29,1.29,0,0,1-.16.68,1,1,0,0,1-.43.41A1.54,1.54,0,0,1,14.36,5.26Z"/><path d="M17.75,2.23a1.23,1.23,0,0,1,.9.28,1.15,1.15,0,0,1,.3.87V5.22h-.32V3.37a.94.94,0,0,0-.21-.68.94.94,0,0,0-.67-.2H17.3a1,1,0,0,0-.17.37,1.7,1.7,0,0,0-.07.51V4.46a.82.82,0,0,1-.18.58.65.65,0,0,1-.52.19h-.13l-.12,0V5h.18a.46.46,0,0,0,.36-.13.6.6,0,0,0,.1-.4V3.39a2.16,2.16,0,0,1,.07-.51.89.89,0,0,1,.2-.39h-.63V2.23Z"/><path d="M19.84,5.22l.25-2a1.17,1.17,0,0,1,.13-.4,1,1,0,0,1,.24-.28l0,0h0l-.31.06-.39.11-.08-.24a2.7,2.7,0,0,1,.43-.12l.46-.08.43,0a1.21,1.21,0,0,1,.88.31,1.2,1.2,0,0,1,.31.9V5.22H21V5h.9V3.36a1,1,0,0,0-.21-.68.83.83,0,0,0-.63-.22.58.58,0,0,0-.46.2.9.9,0,0,0-.24.53l-.25,2Z"/><path d="M25,5.22V3.37a.94.94,0,0,0-.21-.68,1,1,0,0,0-.69-.2h-1V2.23h1a1.27,1.27,0,0,1,.91.28,1.13,1.13,0,0,1,.29.86V5.22Zm-1.91,0v-1a1.77,1.77,0,0,1,0-.37,2,2,0,0,1,.08-.26h.27a2.16,2.16,0,0,0,0,.27,3.36,3.36,0,0,0,0,.36v1Z"/><path d="M27.31,2.49V1.28h.32v1h1.78v.26Zm2.23-.07-1.17,2.8H28l1.27-3h.25Z"/><path d="M30.85,5.26a3,3,0,0,1-.4,0A3.13,3.13,0,0,1,30,5.11l.06-.24a2.37,2.37,0,0,0,.79.12,1,1,0,0,0,.69-.23.87.87,0,0,0,.24-.65V2.49h-1.7V2.23h2V4a1.4,1.4,0,0,1-.15.68,1,1,0,0,1-.44.41A1.54,1.54,0,0,1,30.85,5.26Z"/><path d="M32.84,2.49V1.28h.31v1h1.78v.26Zm2.23-.07-1.18,2.8h-.34l1.27-3h.25Z"/></g></g></svg>