<svg xmlns="http://www.w3.org/2000/svg" viewBox="0 0 337.92 25.31"><defs><style>.cls-1{fill:#e4dbce;}.cls-2{fill:#e7e0d4;}</style></defs><g id="Layer_2" data-name="Layer 2"><g id="Layer_1-2" data-name="Layer 1"><path class="cls-1" d="M329.07,21.38c-3,1-307.91.43-307.91.43s-26.87-4.92-17.7-8.65C49.19-5.48,330,9.54,337.13,11.3,340.49,12.14,332.35,20.32,329.07,21.38Z"/><path class="cls-2" d="M331.18,23.78c-.65.3-.93.5-1,.67s.09.27,0,.37a3.44,3.44,0,0,0,1.22-.69c.16-.16.17-.26.13-.32S331.12,23.73,331.18,23.78Z"/><path class="cls-2" d="M335.87,9.32c.18,0,.38-.08.55-.1-.21,0-.46,0-.68,0-1,0-2,0-2.92.12.92,0,1.84,0,2.8,0Z"/><path class="cls-2" d="M318.81,8c1.41,1,5.63.2,8.37.71l.44.24,1.3-.63C325.55,8.2,321.16,8.4,318.81,8Z"/><path class="cls-2" d="M310.65,5.59c.49.38-1.81.2,1.92.22l-.34-.11C311.89,5.69,311.43,5.66,310.65,5.59Z"/><path class="cls-2" d="M312.23,5.7c1.63.07-1.05-.35,0,0Z"/><path class="cls-2" d="M304.67,5.48l2.17-.19c-.44-.23-2.35-.38-1.63-.49C303,4.85,303.43,5.08,304.67,5.48Z"/><path class="cls-2" d="M302.59,6,303.72,6C303.53,5.85,303.23,5.81,302.59,6Z"/><path class="cls-2" d="M306.1,5.8,303.72,6c.3.16.32.45,1.09,0C304.6,6.16,305.08,5.93,306.1,5.8Z"/><path class="cls-2" d="M307.43,6c1.2.26,2.75.47.57.66C312.12,6.78,311.55,6.12,307.43,6Z"/><path class="cls-2" d="M318,8.88l1.6.36L321,9C320.26,9.13,317.88,8.59,318,8.88Z"/><path class="cls-2" d="M291.28,4.33c-.14.18.7.54.85.79l1.6-.14C292.92,4.81,291.38,4.61,291.28,4.33Z"/><path class="cls-2" d="M292.13,5.12l-2.39.21C291.86,5.47,292.26,5.34,292.13,5.12Z"/><polygon class="cls-2" points="302.16 6.99 306.1 6.52 301.4 6.96 302.16 6.99"/><polygon class="cls-2" points="282.2 3.87 283.57 3.49 281.14 4.04 282.2 3.87"/><path class="cls-2" d="M276.17,3.67c1-.32-1.34-.68-.28-.86a22.57,22.57,0,0,0-4.32.47A16.2,16.2,0,0,1,276.17,3.67Z"/><path class="cls-2" d="M269.44,3.6c.67-.06,1.37-.19,2.13-.32A12.05,12.05,0,0,0,269.44,3.6Z"/><path class="cls-2" d="M285.69,5a3.41,3.41,0,0,0-1.85-.63l.91.58Z"/><path class="cls-2" d="M284.79,5h0l-2-.13Z"/><path class="cls-2" d="M285.93,5.05h-.24A.18.18,0,0,0,285.93,5.05Z"/><path class="cls-2" d="M296,6.18c-1.41.23-4.34.4-1.54,1C295.43,6.87,293.83,6.53,296,6.18Z"/><path class="cls-2" d="M287.06,5.77l2.52.25c-.05-.14-.49-.37.21-.49Z"/><polygon class="cls-2" points="285.81 5.88 287.06 5.77 286.12 5.68 285.81 5.88"/><path class="cls-2" d="M273.75,4.29a21.33,21.33,0,0,1-3.65.13c1.44.16,2.93.29,4.35.35C274.66,4.61,275.3,4.34,273.75,4.29Z"/><path class="cls-2" d="M279.11,4.68l-.24,0C279,4.75,279.13,4.77,279.11,4.68Z"/><path class="cls-2" d="M256.82,3.86,257,4a.47.47,0,0,1,.06-.09Z"/><path class="cls-2" d="M274.69,4.88a6,6,0,0,0,2.36-.09c-.81,0-1.68,0-2.6,0C274.36,4.84,274.34,4.89,274.69,4.88Z"/><path class="cls-2" d="M265.72,3.69c.57.13,1.2.26,1.87.37A4.79,4.79,0,0,0,265.72,3.69Z"/><path class="cls-2" d="M278.51,4.53h.16C278.32,4.39,278.36,4.44,278.51,4.53Z"/><path class="cls-2" d="M278.51,4.53a10.41,10.41,0,0,0-1.46.26c.66,0,1.28,0,1.82-.09A1.73,1.73,0,0,1,278.51,4.53Z"/><path class="cls-2" d="M252.67,7.12c.21-.49,3.08-.83,5.52-.2,2.44-.27.92-2-1.16-3-.08.21-.09.41-2.6.6.87.31,5.52.86,3.39,1.22-3.31.12-2.7-.28-4.3-.61,1.34.67-4.24.74-3.55,1.67l2.91-.21C252.93,6.78,251.87,7,252.67,7.12Z"/><path class="cls-2" d="M261.79,4.21l1,0a19.74,19.74,0,0,1-3.53-.82c-1.72.17-2.08.34-2.2.5l5.05.28Z"/><path class="cls-2" d="M267.43,4.38c-.83.5-3.3.63-1.82,1.27,3,.1,2.14-.35,3.95-.51-4.87-.08,1.41-.24-2.09-.7,1-.05,1.82,0,2.63,0-.87-.11-1.72-.23-2.51-.36l.11,0h0c.21.07.28.12,0,.07h-.1a.58.58,0,0,1-.23.2c-1.4-.17-.22-.15.23-.2,0,0,.06,0,.06-.07h0l-4.88.09C263.85,4.31,265.14,4.34,267.43,4.38Z"/><path class="cls-2" d="M291.75,8.21c-.15-.06-.14-.09-.15-.13C291.28,8.13,291.16,8.17,291.75,8.21Z"/><path class="cls-2" d="M289.76,7.78a4.55,4.55,0,0,1,1.81-.14c1,.21,0,.26,0,.44.7-.11,2.45-.27.29-.64l-.35.06c-2-.29-4.44-1.08-4.09-1.14A6.48,6.48,0,0,0,289.76,7.78Z"/><path class="cls-2" d="M278.45,6.2l-4.06.08,2,.55-.09-.28C278.64,6.76,278.16,6.4,278.45,6.2Z"/><polygon class="cls-2" points="256.37 3.57 256.93 3.02 254.55 3.73 256.37 3.57"/><polygon class="cls-2" points="251.09 3.43 251.31 2.94 249.9 3.19 251.09 3.43"/><path class="cls-2" d="M46.57,18.88l1.2-.14A10.52,10.52,0,0,0,46.57,18.88Z"/><path class="cls-2" d="M37.94,18.83l-.21.25C38.13,18.94,38.29,18.84,37.94,18.83Z"/><path class="cls-2" d="M121.45.81C119.71.35,117.76-.35,118,.2l.54.54A13,13,0,0,1,121.45.81Z"/><path class="cls-2" d="M32.85,7.54l.53.11L34.49,7Z"/><path class="cls-2" d="M31.88,9.9l-2.3-.09A19.13,19.13,0,0,0,31.88,9.9Z"/><path class="cls-2" d="M93.73,18.36l1.4-.55C93,17.81,93.91,18.09,93.73,18.36Z"/><path class="cls-2" d="M197.05,1.9a31.54,31.54,0,0,0-3.74-.42C195.11,1.83,196.56,2.34,197.05,1.9Z"/><path class="cls-2" d="M43.17,24.63c.73-.1,1-.21,1-.33C43.44,24.39,43,24.49,43.17,24.63Z"/><path class="cls-2" d="M189,1.38c.26.06.52.09.79.14a31.43,31.43,0,0,1,3.54,0A10.31,10.31,0,0,0,189,1.38Z"/><path class="cls-2" d="M264.75,18.79c.13,0,.28,0,.39.07S265,18.78,264.75,18.79Z"/><path class="cls-2" d="M314.61,24.05c-.49,0-1.29.05-2.05.06A12,12,0,0,0,314.61,24.05Z"/><path class="cls-2" d="M229.87,2.42c1.12,0,.18,0,0,0Z"/><path class="cls-2" d="M235.24,4.75c-.24,0-.42.13-.45.25A.73.73,0,0,1,235.24,4.75Z"/><path class="cls-2" d="M177.76,4.52h-.09C178,4.63,177.94,4.61,177.76,4.52Z"/><path class="cls-2" d="M231.55,2.73c-.42-.08-.9-.16-1.43-.21C230.35,2.57,230.79,2.63,231.55,2.73Z"/><path class="cls-2" d="M231.33,2.46l1,.09C232.45,2.46,232.33,2.4,231.33,2.46Z"/><path class="cls-2" d="M228.31,2.4c.64,0,1.24.06,1.81.12-.21,0-.31-.08-.25-.1Z"/><path class="cls-2" d="M173.12,20.31l.24.05C174.49,20.14,174,20.17,173.12,20.31Z"/><path class="cls-2" d="M92.4,6.76l.12,0-.16,0Z"/><path class="cls-2" d="M88.4,7.26a6.92,6.92,0,0,1,4-.54L91,5.19Z"/><path class="cls-2" d="M67.25,18.75l-2.82-.49c3.41-.8,5.87-.52,3.22-1.21-.4,1.7-11,.16-11.36,1.86l-1.86-.36c.53,0,.62-.08,1.14-.07-3.61-.82-2.68,1.23-7.35,1-1.62-.13-2.75-.38-1.65-.58L43,19.29c-1.05,0-.79-.33.26-.29l-5.52.13,0-.05c-.79.26-2.57.67-3.45.84-1.4-.24.71-.18.35-.39l-3.06.41c-1.24-.44,1.29-.87,3.4-.8-2.85-1.7-2.53.42-8.69-.58l2.88-.21c-1.86-1-4.11-.62-7.37-1.22.77.31,6.53,1.52,3.21,1.94A10,10,0,0,0,23.34,19c-.32,0-.67,0-1.05.07l-.6.07c-.18,0-.21.08-.34.1a.45.45,0,0,0-.09-.34,2.62,2.62,0,0,0-.77-.28c-.67-.17-1.63-.32-2.68-.53l.31-.75c-2.29-.27-2.21.16-3.61.19-.31-.09-.59-.17-.84-.26l-.34-.13L13.14,17a.57.57,0,0,1-.28-.37,1.18,1.18,0,0,1,.2-.76c-.25-.14-.43.07-.52.34s0,.63-1.1.39a5.78,5.78,0,0,0-1.7-.72,5.11,5.11,0,0,1-1.31-.57.67.67,0,0,1-.32-.59.81.81,0,0,1,.2-.45c.87-.18,1-.08,1.15,0a.59.59,0,0,0,.57.2,1,1,0,0,1-.35-.64.78.78,0,0,1,.63.15c.18-.19-.07-.33-.27-.49s-.3-.34.47-.67c-.11-.21.19-.31.66-.37s1,0,1.88-.06l1.23,0c.43,0,.78-.06,1.31-.13a9.11,9.11,0,0,0,2.74-.76c.89.06-.33.55,0,.81,4.65-1.44,4-1.13,7.83-2.56l3.44.1c-2.55-.28.53-1.41,3.27-2.27-.91-.19-1.7-.36-2.23-.43l4.44-.9c.55.08.13.39-.57.8l.8-.27c1.63.14.84.67-.26,1.23l-1.65-.32c-1.06.6-2,1.25-1.74,1.69A7.48,7.48,0,0,1,33.07,9c-.27.16-.44.3-.3.36s.6-.15,1.31-.43l1.1.77.21-.37,5.87,0c4.09-1.23,7.64-2.84,14.29-3.6-1.61.75-.29,1.09-.34,1.86-1.86-.71-5.12.66-8.57.75,1.8,0,1.43.36,1,.52,2-.4,4-.79,6.08-1.15-.1.64,1.33.39,2.95.56-1.28-1.18,4.54-1.09,7-1.59.17.42-.41.86-3.47.93,3.41.76,4.29-1.68,7.63-1-.74.05-1.15,0-1.43.23,1.72-.46,6-.32,5,.08l-.74,0c5-.07,15.08-.49,15.8-1.56a4.35,4.35,0,0,1-.91,1.52L94.35,3.1c-.76.92,2.28,3-1.83,3.64a19.55,19.55,0,0,0,5.13-.14c-.81-.11-2-1.28-.93-1.39,3,1,2.11.51,5.85,1.32-1.21-.17.11-1.62,2-1.6-.29.21.18,1.41-.52,1.57L108.81,5c-1.19.26-.2,1.19.87,1.58-.5-.27,4.1,0,5.37-.16l-2-.31c5.37.19,5.29-2,10.62-1.95-.64.29-1.59,1.79,1.12,2,1.24-.72,5.5-3.46,10.22-4l.9.41,3.63-.45a95.08,95.08,0,0,1-12,4.21c2,.33.56.49,3.57.46,1.06.39-1.64.58-2.53.6l7,.27c-.31-.85,5.35-.82,5.09-1.52L133,7c-.3-.85,4.41-2.37,9.37-2.2,1.27.35-1,1.49-.85,1.77a18.79,18.79,0,0,1,5.17-.3l-2.11.43c2.76.34,4.52-1.08,7.83-.24,1.15.06,3.41,1.12,3.61.62-1.85-1-2.19-3.95-.93-4.65.4.06,6,1,7.31,1.48,1.88.78-2.86,1.76-1.26,2.42.07-.23,1.12-.5,1.56-.58,1.2.21-.51.7,2.1.64.45-.85,5.32.15,1.25-.7,2.56-.2,2.72.21,5.72.23-1-.57,2.73-1.83,5.3-2-.15.21.42.5.69.64,5.25.18,8.05.63,13,.75.44.21,2.79.52,1.78.86a10.52,10.52,0,0,1,2.87-.39c2.9.81-3.37,0-1.16,1,.2-.49,3.92-.59,6.07-.84-.64-.79-5-.27-7.12,0,0-1,3.79-2.07,8.92-2.42,4.07-.15,1.74.73,2.45.6,7.63.4,6.56-1.66,12.88-.71,2.49.75.07,1.34.61,1.84-3.32.15-5.07-.58-7.31-.62l2.75.4A15.85,15.85,0,0,1,209,5c2.09.66,12.89.49,18.76,1.25,1-.19,2.86-.36,2-.66l-1.87,0c-1.69-.6,3.53-.63,1.18-1a33.4,33.4,0,0,1,8.85-.37l.63.79a6.75,6.75,0,0,0-3.28-.34c1.48-.29,5.36,1.22,7,.28l-2.45-.62c2.53-.29,5.66-1,8.77-.63-1.39-.81-.72.06-2.91-.91,1.88,1.17-8-.34-4.93.93-2.24-1.11-3.92-.58-6.86-1.56.08.26,1,.52-1.58.31a3.56,3.56,0,0,1-.58.2l-.18,0,.14,0c-.11,0-.12,0,.06,0a4.74,4.74,0,0,1,1.32.43c-1.32.54-5.49.38-6.9.63-1.55-.17.66-.26-.18-.56l-2.12.38c-.19-.57-4.1-1.06-.43-1.28l-3.29-.13a24.21,24.21,0,0,0-6.25-.39c-1.55-.17-4,.51-2.58.11l-5.18.2,0-.14c-5.1-.21-10.52.65-16.33-.5a39.87,39.87,0,0,1-6.37,0l-.55-.5c-2.21.13-6.61-.62-7.57-.13C172.93-.44,164.58.44,160.7.16l-.15.64c-2.67-.08-5.23.07-8.55.29l.2.56c-2.86.43-7.34-.46-11.87-.44a4.81,4.81,0,0,1,2.27,0c-5.4-1.3-11.4.86-16.29-.06a8.34,8.34,0,0,1-3,0,1.39,1.39,0,0,0,.3,0h-.5c-.54-.1-1.1-.21-1.7-.3a9.92,9.92,0,0,0,1.43.3c-.94,0-2.37.08-3.77.23l-.6-.6-.32,0c-1.38-.21-1.11.29-.37.74a14.68,14.68,0,0,0-1.85.37c-1.12-1-3.67.35-5.2-.67-.94.51-7,.45-7.77,1.53,0-.14-.46-.2.3-.22a16.13,16.13,0,0,0-4.52.12l-.67-.75L94.72,3c-2.08-.43-2.94-.69-.9-1.31-4.94,1-4,.42-8.22,1.42l.19-.5c-1.5.06-3.9.79-4.82.41-3.4-.86-16.69.41-25.4.07,1.77,1.35-4.07-.41-4.34.74-.53-.31-1.75-.42-.37-.81-4.4.63-6.69-.08-9.67,1.12-.54-.3.9-.58.43-.74a4.15,4.15,0,0,1-1.86.24c-.46-.16.63-.34,1.32-.55-4.53.45-4.89,1.57-5.12,2.59a7.57,7.57,0,0,0-5,.77c-.83-.23-2.2-.42.59-.85-.79,0-3.21.23-5.44.49s-4.28.67-4.3,1.08a7.88,7.88,0,0,0-2.6.45c-1.77.24-2.73.43-3.68.58-.5.09-.91.15-1.57.3L11.59,9,12.7,8.9a4.07,4.07,0,0,1-2.35,1l-1.84.37a10.72,10.72,0,0,0-2.18.63l0-.1c-1,.27-1.78.5-2.42.7a13.1,13.1,0,0,0-1.22.59,9.1,9.1,0,0,0-1.1.69c-.21.19-.45.36-.91.8A2,2,0,0,0,0,14.75a2.66,2.66,0,0,0,.62,1.77l.45-.31a9.75,9.75,0,0,1,3.07,1.91,14.65,14.65,0,0,0,2.53,1.51,14.57,14.57,0,0,0,3.53,1.13c-.49-.26-.94-.51-1.37-.76a6.6,6.6,0,0,1,2,.68A15.44,15.44,0,0,1,13,21.89a16.18,16.18,0,0,0,3.51,2c.42.2-.73,0-1.36,0,5.11,1.89.85-.59,4.8,0,.33.28,0,.5,0,.72s0,.22.28.36a3.4,3.4,0,0,0,.79.22l1.06.06c1.32.34,7.68-1.37,11.29-.55-.79-.33-1.58-.65.24-.9,2.8-.11,7.57,1.25,10.1.22.36.09.49.18.51.26,2.14-.26,7-.43,8.25-1,2,2.08,13.31-1,13.26.92l6.59-.09-.18.19c4.21.13,5.7-.32,7.18-.78,1,.13.27.31.18.41,6.16.39,6.77.31,11.93-.63l.53.62c1.4-.36,8.89,1,14.93.26-.06.07-.19.19-.67.28,6.79-.72,16.25,1.73,18.74-.53l4.48-.55c-5.8-.18.86-1-1.52-1.35,2.28-.13,5.89.68,3.09.8l-.44-.12c-1,1.18,7.2.42,7.05,1.22,11.4-.05,22.51.61,33.19.66l-1.23-.91,3.73.05c1,.21,1.31.72-1.35.68,1.4.52,4.46-.44,4.54-.63,5.2.37-2,1.06-.44,1.08l2.17-.06-.49-.11a14.12,14.12,0,0,1,5.11-.73c2,.19,1,.57,1.83.6,0,.07.26.1,1.22,0l4.7.08L188.69,24c2.08-.36,4.41,0,2.25-.78,3.18,1.26,17.51.45,19.46.84a47,47,0,0,1,9.35-.46c-.88-.15-1.42-1,1.66-.87-1.12,1.68,5.63.73,8.11,1.93-2.22-.8,8.74-.21,5.25-1.34,2.57.14.16.63,2.11,1,6.1-.65,13.45.41,21,.18.12-.23-1.14-.56.47-.89l4,1.09c1.49-.11,1.37-1.27,4.09-.51-.38-.19-1-.46,0-.54,14.79,1,30.2-.95,45.23,1-2-.41-.68-.46.87-.49-1-.09,0-.54-.18-.84l6.3.77c1.13-.83,6.75-.14,7.4-1l-2,.19c2.63-1-3.74-2-3.36-3.22-3,1.1-7.82-1.49-12.67.06-1.07-.23.91-.39.34-.66-1.23.52-2.72.63-5.48.42l.32-.13c-7.75.17-11.07-.32-19.77-.63l.64.59a16.3,16.3,0,0,1-3.14-.4c-2.14.9,5.25,0,3.3,1-2.48-1.2-13.19,0-14.87-1.35-2.87,0,.85.69-2,.68l-.76-.37-.73.48c-1.88-.07-2.84-.53-2.91-.85a15.82,15.82,0,0,0,1.79-.12c-2.44-.43-6.89.17-7.73,0l2.76.22c-7.85.36-17.44-.11-25,.65l.58.28c-5.8.52-4.65-.31-11-.06l.24-.07a21.52,21.52,0,0,1-4.72.39c1.61-.33-3-.63-.91-1-6.28.56-3.11.44-7.26,1.48l-1-.46A12.29,12.29,0,0,1,206,21c2.6-.4-2-.7.89-1.23-6.67-1-9.9,1-13-.46-3.06,1.29,5.77.71,4.05,1,1.44.42-2.52,1-4.61.83s-3.62-1.64-9-1.62c.53,0,.57-.09,1.1-.08-2-.33-3.93.44-6.39-.09-1.38.78-3.19,0-3.59.94l4.92-.22c-2.79.25-5.4,1.41-10,.85a13.63,13.63,0,0,1,2.66-.61c-1.34-.29-2.58.19-4-.11.39-1,6-.21,8.95-1-1.44-.42-5.64.71-4.14-.36-2.16,1.36-5.28-.17-8.91.87l.24-.6a14.68,14.68,0,0,1-2.82.36l1.91-.77c-2.93.66-5.66-.57-8.47-.22,5.89,0,1.32.72,3.81,1.15-7.27.79-4.18-1.55-12.32-1.27,1.1-.08,4.13.36,2.41.63a25.53,25.53,0,0,1-4.55-.66c-5.39.12.83.61-1.47,1-1.83-.72-2.65.3-5,.53l0-.61c-6.15-.39-1.63,1.26-7.17.79l2.34-.84-2.88.22.59-.69a24.48,24.48,0,0,1-7.19.18c.71.43-.4,1.09-3.13,1.11-1.85-.36,1-.57-2.82-.49a4.26,4.26,0,0,1,3.51-.29c.17-.2.86-.38,1-.57-2-.42-5-.1-6.43-.1a9.46,9.46,0,0,1,1.51.15l-5.59.83c-.88-.23-.18-.41.51-.59-1.14.07-1.92.34-3.59.39.43-.49.33-1,2.69-1.22l-5.33.54c-.36-.22-2.74-.59-2-.77-3-.29-7.26.94-11.18.56a4.7,4.7,0,0,1-1.44.25c-3.68-.11-7-.72-11.31,0l-2.48-.88C75,18,81.72,18.9,76,19.23c-4,.27-1.51-.76-2.92-1-2,.44-5.49,1.34-9.19.62C65.14,18.68,66.1,18.81,67.25,18.75Zm-42.17.33c.82-.13,2.45-.51,3-.16C27.19,19.61,26.47,19.28,25.08,19.08Zm14.05-11a5.45,5.45,0,0,1-2.6.12A11.91,11.91,0,0,1,39.13,8.09ZM217.59,2.52l-.09,0C215.69,2.26,216.33,2.37,217.59,2.52Zm3.78.38c.38-.07.36-.16.2-.25a5.7,5.7,0,0,1-2.08.06A3.14,3.14,0,0,0,221.37,2.9Zm-36.3,21.47-.74-.16C186,24,185.53,24.2,185.07,24.37Z"/><path class="cls-2" d="M32,9.63a.58.58,0,0,1-.38-.29C31.33,9.47,31.34,9.59,32,9.63Z"/><path class="cls-2" d="M93.48,18.46h.12a.3.3,0,0,0,.13-.11Z"/><path class="cls-2" d="M162.64,6.64a5.56,5.56,0,0,1-1.5-.33C161.1,6.46,161.45,6.59,162.64,6.64Z"/><path class="cls-2" d="M241.47,2.56,239,2.63a8.53,8.53,0,0,1,2.17.27C241.16,2.76,240.71,2.54,241.47,2.56Z"/><path class="cls-2" d="M262.36,7.11c.35-.06.75,0,1.1,0l-.08-.28C261.87,6.74,260.8,6.92,262.36,7.11Z"/><path class="cls-2" d="M243.64,4.64c.17.52,1.7.4,3.4.37h-.3C247.27,4.31,245.45,4.47,243.64,4.64Z"/><path class="cls-2" d="M247.43,5a13.58,13.58,0,0,1,1.57,0C249.21,4.78,248.37,5,247.43,5Z"/><path class="cls-2" d="M226.18,2.72c.8.15.53-.64,1-.41C228.08,1.69,221.76,2.91,226.18,2.72Z"/><polygon class="cls-2" points="244.95 6.36 244.36 5.71 243.39 6.18 244.95 6.36"/><path class="cls-2" d="M231.56,5.42l2.71.27c0-.11.31-.15.73-.19C233.33,5.42,231.51,5.24,231.56,5.42Z"/><path class="cls-2" d="M235,5.5a11.8,11.8,0,0,0,2.19,0C236.72,5.47,235.71,5.45,235,5.5Z"/><polygon class="cls-2" points="241.24 6.41 240.44 6.25 238.53 6.14 241.24 6.41"/><path class="cls-2" d="M202.41,4.42l-3,.1c-.31.21.5.36,1.6.3C201.75,4.69,202.85,4.64,202.41,4.42Z"/><path class="cls-2" d="M211.31,6.38A3.2,3.2,0,0,1,210,5.87l-.11.77Z"/><path class="cls-2" d="M202.68,6.32c-.3.21-4.32.51-.56.56C202.42,6.67,205.39,6.57,202.68,6.32Z"/><polygon class="cls-2" points="158.09 4.45 158.84 4.45 158.75 3.18 158.09 4.45"/><path class="cls-2" d="M118.78,7.31c3.5.29.83-.79,4-.41.82-.31-2.59-.31-1.75-.57C118.92,6.65,117.8,6.48,118.78,7.31Z"/><path class="cls-2" d="M121,6.33c.34,0,.7-.12,1.08-.2A6.29,6.29,0,0,0,121,6.33Z"/><polygon class="cls-2" points="322.9 24.64 325.18 24.87 323.71 24.46 322.9 24.64"/><path class="cls-2" d="M327.26,23.6l.57.79c.16-.12.64-.27.95-.43a10.67,10.67,0,0,0,1-.5,11.23,11.23,0,0,1-1.48.22,2.9,2.9,0,0,1-.6,0A1.34,1.34,0,0,1,327.26,23.6Z"/><path class="cls-2" d="M19.73,17.07l-.2.16a4.05,4.05,0,0,0,1.79.62Z"/><polygon class="cls-2" points="49.42 18.09 48.89 18.07 49.88 18.81 49.42 18.09"/><path class="cls-2" d="M75.11,17.19c-1,0-2.28.13-3.34.09C74.06,17.15,75.39,18.1,75.11,17.19Z"/><path d="M10.21,17a.2.2,0,0,1-.16-.07.19.19,0,0,1-.07-.16v-.63a.22.22,0,0,1,.23-.24h.64a.25.25,0,0,1,.17.06.26.26,0,0,1,.06.18v.63a.21.21,0,0,1-.06.16.22.22,0,0,1-.17.07Zm.09-1.66a.2.2,0,0,1-.16-.07.19.19,0,0,1-.07-.16V10.21a.22.22,0,0,1,.07-.17A.23.23,0,0,1,10.3,10h.47a.21.21,0,0,1,.16.06.25.25,0,0,1,.06.17v4.88a.21.21,0,0,1-.06.16.19.19,0,0,1-.16.07Z"/><path d="M12.76,17a.2.2,0,0,1-.16-.07.19.19,0,0,1-.07-.16V11.5a.22.22,0,0,1,.07-.17.23.23,0,0,1,.16-.06h1.91a3.24,3.24,0,0,1,1.42.27,1.85,1.85,0,0,1,.84.82,3,3,0,0,1,.27,1.35v3a.21.21,0,0,1-.06.16A.19.19,0,0,1,17,17Zm.63-.8h2.92V13.76a1.81,1.81,0,0,0-.4-1.25,1.66,1.66,0,0,0-1.29-.44H13.39Z"/><path d="M18.84,14.66a.2.2,0,0,1-.16-.07.19.19,0,0,1-.07-.16V11.5a.22.22,0,0,1,.07-.17.23.23,0,0,1,.16-.06h.47a.22.22,0,0,1,.17.06.25.25,0,0,1,.06.17v2.93a.21.21,0,0,1-.06.16.19.19,0,0,1-.17.07Z"/><path d="M23.49,17.08a2.52,2.52,0,0,1-1.93-.65,2.58,2.58,0,0,1-.59-1.8V11.5a.22.22,0,0,1,.07-.17.23.23,0,0,1,.16-.06h.41a.22.22,0,0,1,.17.06.25.25,0,0,1,.06.17v3.08a1.75,1.75,0,0,0,.41,1.24,1.64,1.64,0,0,0,1.24.44,1.66,1.66,0,0,0,1.22-.4,1.71,1.71,0,0,0,.4-1.2,2.55,2.55,0,0,0,0-.31c0-.13,0-.27,0-.41v-.31a1.88,1.88,0,0,0-.35-1.21,1.11,1.11,0,0,0-.88-.38,1.55,1.55,0,0,0-.39.06,1.25,1.25,0,0,0-.37.16.21.21,0,0,1-.19,0,.16.16,0,0,1-.1-.15V11.8a.9.9,0,0,1,0-.18.27.27,0,0,1,.11-.13,2.39,2.39,0,0,1,.43-.2,2.09,2.09,0,0,1,.61-.07,2.23,2.23,0,0,1,1.09.24,1.56,1.56,0,0,1,.67.76A3.25,3.25,0,0,1,26,13.53a2.93,2.93,0,0,1,0,.34v.49a3,3,0,0,1,0,.35A3.11,3.11,0,0,1,25.74,16a1.7,1.7,0,0,1-.8.81A3.32,3.32,0,0,1,23.49,17.08Z"/><path d="M30.56,17a.2.2,0,0,1-.16-.07.19.19,0,0,1-.07-.16v-3a1.81,1.81,0,0,0-.4-1.25,1.66,1.66,0,0,0-1.29-.44H27.33a.2.2,0,0,1-.16-.07.19.19,0,0,1-.07-.16V11.5a.22.22,0,0,1,.07-.17.23.23,0,0,1,.16-.06h1.36a3.32,3.32,0,0,1,1.43.27,1.78,1.78,0,0,1,.84.81,2.94,2.94,0,0,1,.28,1.36v3a.21.21,0,0,1-.06.16A.22.22,0,0,1,31,17Z"/><path d="M35.13,17.08a2.46,2.46,0,0,1-1.86-.65,2.63,2.63,0,0,1-.61-1.85V11.5a.22.22,0,0,1,.07-.17.23.23,0,0,1,.16-.06H35.3a3.12,3.12,0,0,1,1.42.27,1.66,1.66,0,0,1,.78.79,3.48,3.48,0,0,1,.27,1.3,2.64,2.64,0,0,1,0,.32v.44a2.64,2.64,0,0,1,0,.32A3,3,0,0,1,37.48,16a1.74,1.74,0,0,1-.84.81A3.61,3.61,0,0,1,35.13,17.08Zm0-.82a1.8,1.8,0,0,0,1.34-.4,1.68,1.68,0,0,0,.41-1.2,2.45,2.45,0,0,0,0-.3V14a2.27,2.27,0,0,0,0-.29,1.63,1.63,0,0,0-.45-1.21,1.66,1.66,0,0,0-1.18-.4H33.53v2.51a1.79,1.79,0,0,0,.4,1.24A1.56,1.56,0,0,0,35.13,16.26Z"/><path d="M39.08,17a.2.2,0,0,1-.16-.07.19.19,0,0,1-.07-.16v-.34a.22.22,0,0,1,.07-.17.23.23,0,0,1,.16-.06H42V13.76a1.81,1.81,0,0,0-.4-1.25,1.66,1.66,0,0,0-1.29-.44H39.18A.2.2,0,0,1,39,12a.19.19,0,0,1-.07-.16V11.5a.22.22,0,0,1,.07-.17.23.23,0,0,1,.16-.06h1.13a3.17,3.17,0,0,1,1.43.28,1.9,1.9,0,0,1,.86.82,2.94,2.94,0,0,1,.28,1.36v2.45h.37a.21.21,0,0,1,.23.23v.34a.21.21,0,0,1-.06.16.22.22,0,0,1-.17.07Z"/><path d="M47.22,17a.2.2,0,0,1-.16-.07.19.19,0,0,1-.07-.16V11.5a.22.22,0,0,1,.07-.17.23.23,0,0,1,.16-.06h.47a.22.22,0,0,1,.17.06.25.25,0,0,1,.06.17v5.25a.21.21,0,0,1-.06.16.19.19,0,0,1-.17.07Z"/><path d="M49.43,17a.18.18,0,0,1-.15-.07.25.25,0,0,1-.05-.17l.85-4.9a.35.35,0,0,1,.09-.16.2.2,0,0,1,.17,0l.4,0a.19.19,0,0,1,.16.08.19.19,0,0,1,0,.18l-.79,4.81a.23.23,0,0,1-.08.17.24.24,0,0,1-.18.07ZM52,12.09H49.53a.21.21,0,0,1-.17-.07.23.23,0,0,1-.06-.16V11.5a.25.25,0,0,1,.06-.17.24.24,0,0,1,.17-.06h2.54a2.16,2.16,0,0,1,1.11.29,2,2,0,0,1,.76.83,3,3,0,0,1,.27,1.32v3a.21.21,0,0,1-.06.16A.22.22,0,0,1,54,17H51.4a.2.2,0,0,1-.16-.07.19.19,0,0,1-.07-.16v-.34a.22.22,0,0,1,.07-.17.23.23,0,0,1,.16-.06h1.9V13.77a2.21,2.21,0,0,0-.17-.89,1.42,1.42,0,0,0-.48-.59A1.27,1.27,0,0,0,52,12.09Z"/><path d="M55.92,17a.2.2,0,0,1-.16-.07.19.19,0,0,1-.07-.16v-.36a.22.22,0,0,1,.07-.17.23.23,0,0,1,.16-.06h1.43a1.6,1.6,0,0,0,1.28-.45,1.92,1.92,0,0,0,.43-1.24c0-.15,0-.26,0-.35s0-.2,0-.34a2,2,0,0,0-.42-1.25,1.68,1.68,0,0,0-1.29-.44H55.92a.24.24,0,0,1-.23-.23V11.5a.22.22,0,0,1,.07-.17.23.23,0,0,1,.16-.06H57.4a3.08,3.08,0,0,1,1.43.29,2,2,0,0,1,.83.85A3.19,3.19,0,0,1,60,13.75c0,.13,0,.25,0,.37s0,.24,0,.38a3.18,3.18,0,0,1-.29,1.33,1.9,1.9,0,0,1-.83.85,3,3,0,0,1-1.43.3Z"/><path d="M63.88,14.66a.2.2,0,0,1-.16-.07.19.19,0,0,1-.07-.16V11.5a.22.22,0,0,1,.07-.17.23.23,0,0,1,.16-.06h.47a.22.22,0,0,1,.17.06.25.25,0,0,1,.06.17v2.93a.21.21,0,0,1-.06.16.19.19,0,0,1-.17.07Z"/><path d="M68.53,17.08a2.52,2.52,0,0,1-1.93-.65,2.58,2.58,0,0,1-.59-1.8V11.5a.22.22,0,0,1,.07-.17.23.23,0,0,1,.16-.06h.41a.22.22,0,0,1,.17.06.25.25,0,0,1,.06.17v3.08a1.75,1.75,0,0,0,.41,1.24,2,2,0,0,0,2.46,0,1.76,1.76,0,0,0,.4-1.2,2.55,2.55,0,0,0,0-.31c0-.13,0-.27,0-.41v-.31a1.88,1.88,0,0,0-.35-1.21,1.11,1.11,0,0,0-.88-.38,1.55,1.55,0,0,0-.39.06,1.25,1.25,0,0,0-.37.16.21.21,0,0,1-.19,0,.16.16,0,0,1-.1-.15V11.8a.9.9,0,0,1,0-.18.27.27,0,0,1,.11-.13,2.39,2.39,0,0,1,.43-.2,2.09,2.09,0,0,1,.61-.07,2.23,2.23,0,0,1,1.09.24,1.56,1.56,0,0,1,.67.76,3.25,3.25,0,0,1,.25,1.31,2.93,2.93,0,0,1,0,.34v.49a3,3,0,0,1,0,.35A3.11,3.11,0,0,1,70.78,16a1.7,1.7,0,0,1-.8.81A3.32,3.32,0,0,1,68.53,17.08Z"/><path d="M72.28,17a.2.2,0,0,1-.16-.07.19.19,0,0,1-.07-.16v-.34a.22.22,0,0,1,.07-.17.23.23,0,0,1,.16-.06H75.1v.61a.16.16,0,0,1-.06.14.31.31,0,0,1-.17.05Zm2.21,0a.17.17,0,0,1-.15-.07.34.34,0,0,1-.08-.16l-.19-3.09c0-.33,0-.61-.07-.85a1.07,1.07,0,0,0-.24-.56.84.84,0,0,0-.62-.2h-.41a.24.24,0,0,1-.23-.23v-.34a.22.22,0,0,1,.07-.17.23.23,0,0,1,.16-.06h.42a2.17,2.17,0,0,1,.92.16,1.17,1.17,0,0,1,.54.49,2.3,2.3,0,0,1,.28.75,6.73,6.73,0,0,1,.12,1l.18,3.12a.14.14,0,0,1,0,.16A.21.21,0,0,1,75,17Z"/><path d="M76.41,17a.18.18,0,0,1-.15-.07.25.25,0,0,1-.05-.17l.85-4.9a.35.35,0,0,1,.09-.16.2.2,0,0,1,.17,0l.4,0a.19.19,0,0,1,.16.08.19.19,0,0,1,0,.18l-.79,4.81a.23.23,0,0,1-.08.17.24.24,0,0,1-.18.07Zm2.53-4.89H76.51a.21.21,0,0,1-.17-.07.23.23,0,0,1-.06-.16V11.5a.25.25,0,0,1,.06-.17.24.24,0,0,1,.17-.06h2.54a2.16,2.16,0,0,1,1.11.29,2,2,0,0,1,.76.83,3,3,0,0,1,.27,1.32v3a.21.21,0,0,1-.06.16A.22.22,0,0,1,81,17H78.38a.2.2,0,0,1-.16-.07.19.19,0,0,1-.07-.16v-.34a.22.22,0,0,1,.07-.17.23.23,0,0,1,.16-.06h1.9V13.77a2.21,2.21,0,0,0-.17-.89,1.42,1.42,0,0,0-.48-.59A1.27,1.27,0,0,0,78.94,12.09Z"/><path d="M82.9,17a.2.2,0,0,1-.16-.07.19.19,0,0,1-.07-.16V11.5a.22.22,0,0,1,.07-.17.23.23,0,0,1,.16-.06h.47a.22.22,0,0,1,.17.06.25.25,0,0,1,.06.17v5.25a.21.21,0,0,1-.06.16.19.19,0,0,1-.17.07Z"/><path d="M88.37,17a.2.2,0,0,1-.16-.07.19.19,0,0,1-.07-.16v-3a1.81,1.81,0,0,0-.4-1.25,1.66,1.66,0,0,0-1.29-.44H85.14A.2.2,0,0,1,85,12a.19.19,0,0,1-.07-.16V11.5a.22.22,0,0,1,.07-.17.23.23,0,0,1,.16-.06H86.5a3.32,3.32,0,0,1,1.43.27,1.78,1.78,0,0,1,.84.81,2.94,2.94,0,0,1,.28,1.36v3a.21.21,0,0,1-.06.16.22.22,0,0,1-.17.07Z"/><path d="M95.13,17.07A.16.16,0,0,1,95,17a.16.16,0,0,1-.08-.15v-.46a.25.25,0,0,1,.06-.16.33.33,0,0,1,.16-.11l.38-.15a3.06,3.06,0,0,0,.73-.41,1.72,1.72,0,0,0,.51-.66,2.84,2.84,0,0,0,.18-1.1,2.74,2.74,0,0,0-.16-1,1,1,0,0,0-.52-.55,2.47,2.47,0,0,0-1-.16h-2a.24.24,0,0,1-.23-.23V11.5a.22.22,0,0,1,.07-.17.23.23,0,0,1,.16-.06h2.16a3.44,3.44,0,0,1,1.46.26,1.57,1.57,0,0,1,.77.83,4.24,4.24,0,0,1,.23,1.51,3.42,3.42,0,0,1-.19,1.21,2.67,2.67,0,0,1-.51.87,2.91,2.91,0,0,1-.73.59,4.65,4.65,0,0,1-.85.39Zm-1.92,1.82a.24.24,0,0,1-.23-.23V13.41a.22.22,0,0,1,.07-.17.23.23,0,0,1,.16-.06h.44a.22.22,0,0,1,.17.06.25.25,0,0,1,.06.17v5.25a.23.23,0,0,1-.06.16.19.19,0,0,1-.17.07Z"/><path d="M99.4,14.66a.2.2,0,0,1-.16-.07.19.19,0,0,1-.07-.16V11.5a.22.22,0,0,1,.07-.17.23.23,0,0,1,.16-.06h.47a.22.22,0,0,1,.17.06.25.25,0,0,1,.06.17v2.93a.21.21,0,0,1-.06.16.19.19,0,0,1-.17.07Z"/><path d="M101.49,17a.2.2,0,0,1-.16-.07.19.19,0,0,1-.07-.16v-.34a.22.22,0,0,1,.07-.17.23.23,0,0,1,.16-.06h2.82v.61a.16.16,0,0,1-.06.14.31.31,0,0,1-.17.05Zm2.21,0a.16.16,0,0,1-.15-.07.27.27,0,0,1-.08-.16l-.19-3.09c0-.33,0-.61-.07-.85a1.07,1.07,0,0,0-.24-.56.84.84,0,0,0-.62-.2h-.41a.24.24,0,0,1-.23-.23v-.34a.22.22,0,0,1,.07-.17.23.23,0,0,1,.16-.06h.42a2.17,2.17,0,0,1,.92.16,1.28,1.28,0,0,1,.54.49,2.3,2.3,0,0,1,.28.75,6.73,6.73,0,0,1,.12,1l.18,3.12a.14.14,0,0,1-.05.16.22.22,0,0,1-.17.07Z"/><path d="M107.8,17.07a.16.16,0,0,1-.16,0,.16.16,0,0,1-.08-.15v-.46a.25.25,0,0,1,.06-.16.33.33,0,0,1,.16-.11l.38-.15a3.06,3.06,0,0,0,.73-.41,1.72,1.72,0,0,0,.51-.66,2.84,2.84,0,0,0,.18-1.1,2.74,2.74,0,0,0-.16-1,1,1,0,0,0-.52-.55,2.47,2.47,0,0,0-1-.16h-2a.24.24,0,0,1-.23-.23V11.5a.22.22,0,0,1,.07-.17.23.23,0,0,1,.16-.06H108a3.44,3.44,0,0,1,1.46.26,1.57,1.57,0,0,1,.77.83,4.24,4.24,0,0,1,.23,1.51,3.42,3.42,0,0,1-.19,1.21,2.67,2.67,0,0,1-.51.87,2.91,2.91,0,0,1-.73.59,4.65,4.65,0,0,1-.85.39Zm-1.92,1.82a.24.24,0,0,1-.23-.23V13.41a.22.22,0,0,1,.07-.17.23.23,0,0,1,.16-.06h.44a.22.22,0,0,1,.17.06.25.25,0,0,1,.06.17v5.25a.23.23,0,0,1-.06.16.19.19,0,0,1-.17.07Z"/><path d="M112.07,14.66a.2.2,0,0,1-.16-.07.19.19,0,0,1-.07-.16V11.5a.22.22,0,0,1,.07-.17.23.23,0,0,1,.16-.06h.47a.22.22,0,0,1,.17.06.25.25,0,0,1,.06.17v2.93a.21.21,0,0,1-.06.16.19.19,0,0,1-.17.07Z"/><path d="M115.06,12.09v.78a2.38,2.38,0,0,0,.09.6.44.44,0,0,0,.31.3l.37.1a.21.21,0,0,1,.13.1.46.46,0,0,1,0,.21v.25a.16.16,0,0,1-.11.16.47.47,0,0,1-.24,0l-.39-.08a1.22,1.22,0,0,1-.55-.29,1.16,1.16,0,0,1-.34-.56,2.64,2.64,0,0,1-.12-.85V11.5a.25.25,0,0,1,.06-.17.24.24,0,0,1,.17-.06h1.85a2.49,2.49,0,0,1,1.25.29,1.85,1.85,0,0,1,.76.85,3.36,3.36,0,0,1,.28,1.34c0,.1,0,.22,0,.37s0,.28,0,.38a3.35,3.35,0,0,1-.28,1.33,1.8,1.8,0,0,1-.76.85,2.39,2.39,0,0,1-1.25.3H114.6a.2.2,0,0,1-.16-.07.19.19,0,0,1-.07-.16v-.36a.22.22,0,0,1,.07-.17.23.23,0,0,1,.16-.06h1.68a1.32,1.32,0,0,0,1.07-.45,2,2,0,0,0,.41-1.24c0-.1,0-.22,0-.35s0-.24,0-.34a2,2,0,0,0-.4-1.25,1.38,1.38,0,0,0-1.08-.44Z"/><path d="M122.62,18.22a.19.19,0,0,1-.16-.07.2.2,0,0,1-.07-.16V11.5a.22.22,0,0,1,.07-.17.21.21,0,0,1,.16-.06h.45a.24.24,0,0,1,.17.06.25.25,0,0,1,.06.17V18a.23.23,0,0,1-.06.16.21.21,0,0,1-.17.07Z"/><path d="M125.07,17a.2.2,0,0,1-.16-.07.19.19,0,0,1-.07-.16V11.5a.22.22,0,0,1,.07-.17.23.23,0,0,1,.16-.06h.47a.24.24,0,0,1,.17.06.25.25,0,0,1,.06.17v5.25a.21.21,0,0,1-.06.16.21.21,0,0,1-.17.07Z"/><path d="M127.22,17a.24.24,0,0,1-.23-.23v-.34a.22.22,0,0,1,.07-.17.21.21,0,0,1,.16-.06H130v.61a.16.16,0,0,1-.06.14.31.31,0,0,1-.17.05Zm2.21,0a.16.16,0,0,1-.15-.07.27.27,0,0,1-.08-.16L129,13.66c0-.33,0-.61-.07-.85a1.07,1.07,0,0,0-.24-.56.84.84,0,0,0-.62-.2h-.41a.19.19,0,0,1-.16-.07.2.2,0,0,1-.07-.16v-.34a.22.22,0,0,1,.07-.17.21.21,0,0,1,.16-.06h.42a2.17,2.17,0,0,1,.92.16,1.28,1.28,0,0,1,.54.49,2.3,2.3,0,0,1,.28.75,6.73,6.73,0,0,1,.12,1l.18,3.12a.15.15,0,0,1,0,.16.22.22,0,0,1-.17.07Z"/><path d="M131.61,17a.2.2,0,0,1-.16-.07.19.19,0,0,1-.07-.16v-.36a.22.22,0,0,1,.07-.17.23.23,0,0,1,.16-.06H133a1.62,1.62,0,0,0,1.28-.45,2,2,0,0,0,.43-1.24c0-.15,0-.26,0-.35s0-.2,0-.34a2,2,0,0,0-.42-1.25,1.69,1.69,0,0,0-1.29-.44h-1.43a.24.24,0,0,1-.23-.23V11.5a.22.22,0,0,1,.07-.17.23.23,0,0,1,.16-.06h1.48a3.1,3.1,0,0,1,1.43.29,2,2,0,0,1,.83.85,3.19,3.19,0,0,1,.29,1.34c0,.13,0,.25,0,.37s0,.24,0,.38a3.18,3.18,0,0,1-.29,1.33,1.9,1.9,0,0,1-.83.85,3,3,0,0,1-1.43.3Z"/><path d="M138.26,11.58h.25a.32.32,0,0,1,.23.07.22.22,0,0,1,.06.19c-.05.28-.1.53-.13.76a5.31,5.31,0,0,0-.08.67c0,.23,0,.48,0,.76l0,2.72a.21.21,0,0,1-.06.16.19.19,0,0,1-.16.07L137,17a.21.21,0,0,1-.16-.06.21.21,0,0,1-.07-.17v-.32a.22.22,0,0,1,.07-.17.21.21,0,0,1,.16-.06h.77V14.07c0-.28,0-.53,0-.76s0-.46.06-.69a7.38,7.38,0,0,1,.16-.79.35.35,0,0,1,.1-.18A.25.25,0,0,1,138.26,11.58Zm-.9.49a.2.2,0,0,1-.16-.07.19.19,0,0,1-.07-.16V11.5a.22.22,0,0,1,.07-.17.23.23,0,0,1,.16-.06h2.17a3.35,3.35,0,0,1,1.43.27,1.9,1.9,0,0,1,.84.82,2.9,2.9,0,0,1,.28,1.35v3a.21.21,0,0,1-.06.16.22.22,0,0,1-.17.07h-.45a.21.21,0,0,1-.17-.07.21.21,0,0,1-.06-.16v-3a1.81,1.81,0,0,0-.4-1.25,1.71,1.71,0,0,0-1.3-.44Z"/><path d="M144.81,12.09h-1.19a.21.21,0,0,1-.16-.06.2.2,0,0,1-.07-.16V10.11a.22.22,0,0,1,.07-.17.21.21,0,0,1,.16-.06H144a.21.21,0,0,1,.23.23v1.16h.56Zm0,5a.17.17,0,0,1-.17,0,.16.16,0,0,1-.08-.15v-.46a.25.25,0,0,1,.06-.16.33.33,0,0,1,.16-.11l.39-.15a3.19,3.19,0,0,0,.72-.41,1.72,1.72,0,0,0,.51-.66,2.84,2.84,0,0,0,.18-1.1,3,3,0,0,0-.15-1,1,1,0,0,0-.52-.55,2.52,2.52,0,0,0-1-.16h-.3a.19.19,0,0,1-.16-.07.2.2,0,0,1-.07-.16V11.5a.22.22,0,0,1,.07-.17.21.21,0,0,1,.16-.06H145a3.42,3.42,0,0,1,1.45.26,1.55,1.55,0,0,1,.78.83,4.24,4.24,0,0,1,.23,1.51,3.42,3.42,0,0,1-.19,1.21,2.85,2.85,0,0,1-.51.87,3,3,0,0,1-.74.59,4.65,4.65,0,0,1-.85.39Z"/><path d="M151.41,14.66a.24.24,0,0,1-.23-.23V11.5a.22.22,0,0,1,.07-.17.21.21,0,0,1,.16-.06h.47a.24.24,0,0,1,.17.06.25.25,0,0,1,.06.17v2.93a.21.21,0,0,1-.06.16.21.21,0,0,1-.17.07Z"/><path d="M153.75,14.66a.24.24,0,0,1-.23-.23V11.5a.22.22,0,0,1,.07-.17.21.21,0,0,1,.16-.06h.47a.24.24,0,0,1,.17.06.25.25,0,0,1,.06.17v2.93a.21.21,0,0,1-.06.16.21.21,0,0,1-.17.07Z"/><path d="M157.18,12.09H156a.21.21,0,0,1-.16-.06.2.2,0,0,1-.07-.16V10.11a.22.22,0,0,1,.07-.17.21.21,0,0,1,.16-.06h.42a.21.21,0,0,1,.23.23v1.16h.56Zm0,5a.17.17,0,0,1-.17,0,.16.16,0,0,1-.08-.15v-.46a.25.25,0,0,1,.06-.16.33.33,0,0,1,.16-.11l.39-.15a3.19,3.19,0,0,0,.72-.41,1.72,1.72,0,0,0,.51-.66,2.84,2.84,0,0,0,.18-1.1,3,3,0,0,0-.15-1,1,1,0,0,0-.52-.55,2.52,2.52,0,0,0-1-.16H157a.19.19,0,0,1-.16-.07.2.2,0,0,1-.07-.16V11.5a.22.22,0,0,1,.07-.17.21.21,0,0,1,.16-.06h.44a3.42,3.42,0,0,1,1.45.26,1.55,1.55,0,0,1,.78.83,4.24,4.24,0,0,1,.23,1.51,3.42,3.42,0,0,1-.19,1.21,2.85,2.85,0,0,1-.51.87,3,3,0,0,1-.74.59,4.65,4.65,0,0,1-.85.39Z"/><path d="M161.12,17.53a.21.21,0,0,1-.19,0,.16.16,0,0,1-.09-.15V17a.33.33,0,0,1,0-.17.17.17,0,0,1,.13-.1l2.11-.7a2.36,2.36,0,0,0,.88-.49,1.73,1.73,0,0,0,.44-.7,3,3,0,0,0,.12-.87V11.5a.22.22,0,0,1,.07-.17.21.21,0,0,1,.16-.06h.45a.21.21,0,0,1,.23.23v2.77a2.4,2.4,0,0,1-.26,1.09,2.7,2.7,0,0,1-.75.9,3.42,3.42,0,0,1-1.14.59Zm1.31-.79L161,11.67l0-.12a.24.24,0,0,1,0-.08.18.18,0,0,1,.06-.14.2.2,0,0,1,.14-.06h.49a.21.21,0,0,1,.23.15l1.39,5.09Z"/><path d="M169.63,17a.24.24,0,0,1-.23-.23V11.5a.22.22,0,0,1,.07-.17.21.21,0,0,1,.16-.06h.47a.24.24,0,0,1,.17.06.25.25,0,0,1,.06.17v5.25a.21.21,0,0,1-.06.16.21.21,0,0,1-.17.07Z"/><path d="M171.89,17a.24.24,0,0,1-.23-.23V16.4a.22.22,0,0,1,.07-.17.21.21,0,0,1,.16-.06h2.71l-3.13-4.51-.05-.11a.24.24,0,0,1,0-.08.16.16,0,0,1,.07-.14.2.2,0,0,1,.14-.06h.48a.31.31,0,0,1,.17.05l.1.12,3.26,4.67.09.14a.47.47,0,0,1,0,.17v.33a.21.21,0,0,1-.06.16.22.22,0,0,1-.17.07Zm2.53-2.28-.44-.65a1.37,1.37,0,0,0,.76-.63,2.27,2.27,0,0,0,.23-1.06V11.5a.22.22,0,0,1,.07-.17.21.21,0,0,1,.16-.06h.41a.24.24,0,0,1,.17.06.25.25,0,0,1,.06.17v1a2.53,2.53,0,0,1-.36,1.38A2.09,2.09,0,0,1,174.42,14.7Z"/><path d="M177.43,17a.22.22,0,0,1-.17-.07.21.21,0,0,1-.06-.16V11.5a.21.21,0,0,1,.23-.23h1.94a3.29,3.29,0,0,1,1.43.27,1.88,1.88,0,0,1,.85.82,3,3,0,0,1,.28,1.37v3a.24.24,0,0,1-.23.23h-.45a.21.21,0,0,1-.17-.07.21.21,0,0,1-.06-.16v-3a1.81,1.81,0,0,0-.4-1.25,1.7,1.7,0,0,0-1.3-.44h-1.21v4.68a.21.21,0,0,1-.06.16.21.21,0,0,1-.17.07Z"/><path d="M184.66,12.09h-1.19a.25.25,0,0,1-.17-.06.23.23,0,0,1-.06-.16V10.11a.21.21,0,0,1,.23-.23h.42a.21.21,0,0,1,.16.06.22.22,0,0,1,.07.17v1.16h.56Zm0,5a.17.17,0,0,1-.17,0,.16.16,0,0,1-.08-.15v-.46a.3.3,0,0,1,.05-.16.42.42,0,0,1,.17-.11L185,16a3.19,3.19,0,0,0,.72-.41,1.61,1.61,0,0,0,.5-.66,2.65,2.65,0,0,0,.19-1.1,3,3,0,0,0-.15-1,1,1,0,0,0-.53-.55,2.43,2.43,0,0,0-1-.16h-.3a.22.22,0,0,1-.17-.07.23.23,0,0,1-.06-.16V11.5a.21.21,0,0,1,.23-.23h.44a3.42,3.42,0,0,1,1.45.26,1.5,1.5,0,0,1,.77.83,4,4,0,0,1,.24,1.51,3.42,3.42,0,0,1-.19,1.21,2.69,2.69,0,0,1-.52.87,2.75,2.75,0,0,1-.73.59,4.65,4.65,0,0,1-.85.39Z"/><path d="M192.76,15.34a.2.2,0,0,1-.15-.06.18.18,0,0,1-.06-.15v-.4a1.81,1.81,0,0,1,.19-.76,2.49,2.49,0,0,1,.42-.6c.16-.18.32-.35.49-.52a3.21,3.21,0,0,0,.43-.49,1.34,1.34,0,0,0,.21-.53.84.84,0,0,0-.14-.61,1.16,1.16,0,0,0-.49-.37,1.59,1.59,0,0,0-.64-.13,1.5,1.5,0,0,0-.9.27,1.45,1.45,0,0,0-.5.93.26.26,0,0,1-.1.17.3.3,0,0,1-.16.05h-.48a.25.25,0,0,1-.16-.06.21.21,0,0,1-.06-.16,2.07,2.07,0,0,1,.18-.78,1.83,1.83,0,0,1,.49-.65,2.34,2.34,0,0,1,.75-.45,2.7,2.7,0,0,1,1-.16,2.92,2.92,0,0,1,1,.16,2,2,0,0,1,.71.44,1.88,1.88,0,0,1,.38.61,1.69,1.69,0,0,1,.1.66,1.78,1.78,0,0,1-.2.71,2.64,2.64,0,0,1-.41.58l-.48.52a3.45,3.45,0,0,0-.43.53,1.32,1.32,0,0,0-.19.6c0,.07,0,.14,0,.21v.21a.3.3,0,0,1-.08.17.24.24,0,0,1-.17.06ZM192.68,17a.22.22,0,0,1-.17-.07.21.21,0,0,1-.06-.16v-.61a.21.21,0,0,1,.23-.23h.65a.28.28,0,0,1,.18.06.25.25,0,0,1,.06.17v.61a.21.21,0,0,1-.06.16.24.24,0,0,1-.18.07Z"/><path d="M196.57,14.66a.22.22,0,0,1-.17-.07.21.21,0,0,1-.06-.16V11.5a.21.21,0,0,1,.23-.23H197a.24.24,0,0,1,.17.06.25.25,0,0,1,.06.17v2.93a.21.21,0,0,1-.06.16.21.21,0,0,1-.17.07Z"/><path d="M200.08,16.47a4.47,4.47,0,0,1-.7.38,3.73,3.73,0,0,1-.67.21.31.31,0,0,1-.17,0s-.07-.06-.07-.13v-.5c0-.12.07-.2.21-.25l.26-.09a3.12,3.12,0,0,0,.41-.16,2.24,2.24,0,0,0,.38-.19,2.67,2.67,0,0,0,.49-.42,2.84,2.84,0,0,0,.4-.53,1,1,0,0,0,.17-.48l.58-.07a2.58,2.58,0,0,1-.19.87,3.37,3.37,0,0,1-.47.8A2.64,2.64,0,0,1,200.08,16.47Zm1.29.51a.16.16,0,0,1-.15-.07.27.27,0,0,1-.08-.16l-.61-3.07a7.52,7.52,0,0,0-.23-.89,1.36,1.36,0,0,0-.37-.54.94.94,0,0,0-.61-.18H199a.24.24,0,0,1-.23-.23v-.36a.22.22,0,0,1,.07-.17.21.21,0,0,1,.16-.06h.37a2,2,0,0,1,1.08.26,1.87,1.87,0,0,1,.65.8,5.73,5.73,0,0,1,.41,1.32l.6,3.12a.15.15,0,0,1,0,.16.22.22,0,0,1-.17.07Z"/><path d="M203.44,17a.22.22,0,0,1-.17-.07.21.21,0,0,1-.06-.16V11.5a.21.21,0,0,1,.23-.23h.47a.24.24,0,0,1,.17.06.25.25,0,0,1,.06.17v5.25a.21.21,0,0,1-.06.16.21.21,0,0,1-.17.07Z"/><path d="M205.67,12.07a.22.22,0,0,1-.17-.07.21.21,0,0,1-.06-.16V11.5a.21.21,0,0,1,.23-.23h2.42a.24.24,0,0,1,.17.06.25.25,0,0,1,.06.17v.34a.21.21,0,0,1-.06.16.21.21,0,0,1-.17.07Zm.84,4.91a.19.19,0,0,1-.22-.22V13.19a2.47,2.47,0,0,1,.14-.92c.09-.22.21-.33.34-.33h1c-.17,0-.3.13-.41.38a2.54,2.54,0,0,0-.15.94v3.5a.19.19,0,0,1-.07.16A.25.25,0,0,1,207,17Z"/><path d="M213.66,17a.22.22,0,0,1-.17-.07.21.21,0,0,1-.06-.16v-3a1.81,1.81,0,0,0-.4-1.25,1.69,1.69,0,0,0-1.29-.44h-1.88a.22.22,0,0,1-.17-.07.21.21,0,0,1-.06-.16V11.5a.21.21,0,0,1,.23-.23h1.93a2.62,2.62,0,0,1,1.93.63,2.52,2.52,0,0,1,.62,1.83v3a.24.24,0,0,1-.23.23Zm-3.8,0a.22.22,0,0,1-.17-.07.21.21,0,0,1-.06-.16V13.41a.21.21,0,0,1,.23-.23h.45a.24.24,0,0,1,.17.06.25.25,0,0,1,.06.17v3.34a.21.21,0,0,1-.06.16.21.21,0,0,1-.17.07Z"/><path d="M218.43,14.66a.22.22,0,0,1-.17-.07.21.21,0,0,1-.06-.16V11.5a.21.21,0,0,1,.23-.23h.47a.24.24,0,0,1,.17.06.25.25,0,0,1,.06.17v2.93a.21.21,0,0,1-.06.16.21.21,0,0,1-.17.07Z"/><path d="M220.84,17a.22.22,0,0,1-.17-.07.21.21,0,0,1-.06-.16V11.5a.21.21,0,0,1,.23-.23h.47a.24.24,0,0,1,.17.06.25.25,0,0,1,.06.17v5.25a.21.21,0,0,1-.06.16.21.21,0,0,1-.17.07Z"/><path d="M224.33,12.09h-1.19A.25.25,0,0,1,223,12a.23.23,0,0,1-.06-.16V10.11a.21.21,0,0,1,.23-.23h.42a.21.21,0,0,1,.16.06.22.22,0,0,1,.07.17v1.16h.56Zm0,5a.17.17,0,0,1-.17,0,.16.16,0,0,1-.08-.15v-.46a.3.3,0,0,1,.05-.16.42.42,0,0,1,.17-.11l.39-.15a2.93,2.93,0,0,0,.71-.41,1.55,1.55,0,0,0,.51-.66,2.65,2.65,0,0,0,.19-1.1,3,3,0,0,0-.15-1,1,1,0,0,0-.53-.55,2.43,2.43,0,0,0-1-.16h-.3a.22.22,0,0,1-.17-.07.23.23,0,0,1-.06-.16V11.5a.21.21,0,0,1,.23-.23h.44a3.42,3.42,0,0,1,1.45.26,1.5,1.5,0,0,1,.77.83,4,4,0,0,1,.24,1.51,3.42,3.42,0,0,1-.19,1.21,2.69,2.69,0,0,1-.52.87,2.75,2.75,0,0,1-.73.59,4.65,4.65,0,0,1-.85.39Z"/><path d="M228.48,14.66a.22.22,0,0,1-.17-.07.21.21,0,0,1-.06-.16V11.5a.21.21,0,0,1,.23-.23H229a.24.24,0,0,1,.17.06.25.25,0,0,1,.06.17v2.93a.21.21,0,0,1-.06.16.21.21,0,0,1-.17.07Z"/><path d="M230.65,17a.22.22,0,0,1-.17-.07.21.21,0,0,1-.06-.16v-.34a.21.21,0,0,1,.23-.23h2.87V13.76a1.86,1.86,0,0,0-.4-1.25,1.69,1.69,0,0,0-1.29-.44h-1.08a.22.22,0,0,1-.17-.07.21.21,0,0,1-.06-.16V11.5a.21.21,0,0,1,.23-.23h1.13a3.2,3.2,0,0,1,1.43.28,1.88,1.88,0,0,1,.85.82,2.94,2.94,0,0,1,.29,1.36v2.45h.37a.23.23,0,0,1,.16.06.22.22,0,0,1,.07.17v.34a.19.19,0,0,1-.07.16.2.2,0,0,1-.16.07Z"/><path d="M240.14,17a.22.22,0,0,1-.17-.07.21.21,0,0,1-.06-.16v-3a1.81,1.81,0,0,0-.4-1.25,1.69,1.69,0,0,0-1.29-.44h-1.88a.22.22,0,0,1-.17-.07.21.21,0,0,1-.06-.16V11.5a.21.21,0,0,1,.23-.23h1.93a2.58,2.58,0,0,1,1.92.63,2.48,2.48,0,0,1,.63,1.83v3a.24.24,0,0,1-.23.23Zm-3.8,0a.22.22,0,0,1-.17-.07.21.21,0,0,1-.06-.16V13.41a.21.21,0,0,1,.23-.23h.45a.24.24,0,0,1,.17.06.25.25,0,0,1,.06.17v3.34a.21.21,0,0,1-.06.16.21.21,0,0,1-.17.07Z"/><path d="M246.05,11.58h.25a.29.29,0,0,1,.22.07.26.26,0,0,1,.07.19c-.05.28-.1.53-.14.76s-.06.45-.07.67,0,.48,0,.76l0,2.72a.21.21,0,0,1-.06.16.2.2,0,0,1-.16.07l-1.42,0a.25.25,0,0,1-.17-.06.24.24,0,0,1-.06-.17v-.32a.21.21,0,0,1,.23-.23h.77V14.07c0-.28,0-.53,0-.76s0-.46.06-.69a7.38,7.38,0,0,1,.16-.79.44.44,0,0,1,.09-.18A.29.29,0,0,1,246.05,11.58Zm-.9.49A.22.22,0,0,1,245,12a.21.21,0,0,1-.06-.16V11.5a.21.21,0,0,1,.23-.23h2.17a3.27,3.27,0,0,1,1.42.27,1.88,1.88,0,0,1,.85.82,2.9,2.9,0,0,1,.28,1.35v3a.24.24,0,0,1-.23.23h-.45a.21.21,0,0,1-.17-.07.21.21,0,0,1-.06-.16v-3a1.81,1.81,0,0,0-.41-1.25,1.69,1.69,0,0,0-1.29-.44Z"/><path d="M251.34,17a.22.22,0,0,1-.17-.07.21.21,0,0,1-.06-.16v-1.5a4.17,4.17,0,0,1,.09-.88,2.31,2.31,0,0,1,.35-.79,2.81,2.81,0,0,1,.8-.7l.46.67a1.69,1.69,0,0,0-.54.52,1.85,1.85,0,0,0-.24.61,3.31,3.31,0,0,0-.06.61v1.46a.24.24,0,0,1-.23.23Zm3.9,0a.24.24,0,0,1-.17-.06l-.11-.1-3.67-5.16a.37.37,0,0,1-.07-.19.18.18,0,0,1,.06-.14.24.24,0,0,1,.15-.06h.46a.24.24,0,0,1,.18.06,1.13,1.13,0,0,1,.11.11l3.68,5.15a.34.34,0,0,1,0,.11.24.24,0,0,1,0,.08.2.2,0,0,1-.06.14.2.2,0,0,1-.15.06Zm-.8-1.83-.41-.69a1.79,1.79,0,0,0,.69-.48,1.08,1.08,0,0,0,.25-.53,3.48,3.48,0,0,0,0-.57V11.5a.21.21,0,0,1,.23-.23h.42a.21.21,0,0,1,.16.06.22.22,0,0,1,.07.17v1.43a3.1,3.1,0,0,1-.1.81,1.76,1.76,0,0,1-.41.74A3,3,0,0,1,254.44,15.15Z"/><path d="M261,16.47a4.47,4.47,0,0,1-.7.38,3.73,3.73,0,0,1-.67.21.3.3,0,0,1-.17,0c-.05,0-.07-.06-.07-.13v-.5c0-.12.07-.2.21-.25l.26-.09a3.12,3.12,0,0,0,.41-.16,2.24,2.24,0,0,0,.38-.19,2.67,2.67,0,0,0,.49-.42,2.84,2.84,0,0,0,.4-.53,1,1,0,0,0,.17-.48l.58-.07a2.58,2.58,0,0,1-.19.87,3.37,3.37,0,0,1-.47.8A3.07,3.07,0,0,1,261,16.47Zm1.29.51a.19.19,0,0,1-.16-.07.34.34,0,0,1-.07-.16l-.61-3.07a5.88,5.88,0,0,0-.24-.89,1.35,1.35,0,0,0-.36-.54.94.94,0,0,0-.61-.18h-.36a.22.22,0,0,1-.17-.07.21.21,0,0,1-.06-.16v-.36a.21.21,0,0,1,.23-.23h.37a2,2,0,0,1,1.08.26,1.87,1.87,0,0,1,.65.8,5.73,5.73,0,0,1,.41,1.32l.6,3.12a.15.15,0,0,1-.05.16.23.23,0,0,1-.17.07Z"/><path d="M267.37,17a.22.22,0,0,1-.17-.07.21.21,0,0,1-.06-.16v-3a1.81,1.81,0,0,0-.4-1.25,1.69,1.69,0,0,0-1.29-.44h-1.31A.22.22,0,0,1,264,12a.21.21,0,0,1-.06-.16V11.5a.21.21,0,0,1,.23-.23h1.36a3.27,3.27,0,0,1,1.42.27,1.81,1.81,0,0,1,.85.81,2.94,2.94,0,0,1,.28,1.36v3a.19.19,0,0,1-.07.16.2.2,0,0,1-.16.07Z"/><path d="M269.36,12.07a.22.22,0,0,1-.17-.07.21.21,0,0,1-.06-.16V11.5a.21.21,0,0,1,.23-.23h4.29a.21.21,0,0,1,.16.06.22.22,0,0,1,.07.17v.34a.24.24,0,0,1-.23.23Zm2.7,4.91a.19.19,0,0,1-.22-.22V13.19a2.47,2.47,0,0,1,.14-.92c.09-.22.21-.33.35-.33h1c-.17,0-.3.13-.41.38a2.54,2.54,0,0,0-.15.94v3.5a.19.19,0,0,1-.07.16.25.25,0,0,1-.17.06Z"/><path d="M277.94,16.23A2,2,0,0,0,279,16a1.63,1.63,0,0,0,.68-.72,2.27,2.27,0,0,0,.24-1.06V11.5a.21.21,0,0,1,.23-.23h.41a.24.24,0,0,1,.17.06.25.25,0,0,1,.06.17v2.78a3.19,3.19,0,0,1-.2,1.15,2.45,2.45,0,0,1-1.45,1.44,2.82,2.82,0,0,1-1.11.17h-.75a2.29,2.29,0,0,1-1.17-.3,2.14,2.14,0,0,1-.82-.84,2.54,2.54,0,0,1-.3-1.25V11.5a.21.21,0,0,1,.23-.23h.42a.23.23,0,0,1,.16.06.22.22,0,0,1,.07.17l0,2.95a1.75,1.75,0,0,0,.48,1.32,1.67,1.67,0,0,0,1.22.46Zm-2.22-1.17,0-.73a2.42,2.42,0,0,0,1.13-.23,1.14,1.14,0,0,0,.54-.57,1.86,1.86,0,0,0,.16-.79V11.5a.25.25,0,0,1,.06-.17.22.22,0,0,1,.17-.06h.41a.23.23,0,0,1,.16.06.22.22,0,0,1,.07.17v1.28a2.42,2.42,0,0,1-.29,1.17,2,2,0,0,1-.89.82A3.19,3.19,0,0,1,275.72,15.06Z"/><path d="M283.47,12.09h-1.19a.25.25,0,0,1-.17-.06.23.23,0,0,1-.06-.16V10.11a.21.21,0,0,1,.23-.23h.42a.23.23,0,0,1,.16.06.22.22,0,0,1,.07.17v1.16h.56Zm0,5a.17.17,0,0,1-.17,0,.15.15,0,0,1-.08-.15v-.46a.3.3,0,0,1,.05-.16.36.36,0,0,1,.17-.11l.39-.15a2.93,2.93,0,0,0,.71-.41,1.55,1.55,0,0,0,.51-.66,2.65,2.65,0,0,0,.19-1.1,2.74,2.74,0,0,0-.16-1,1,1,0,0,0-.52-.55,2.43,2.43,0,0,0-1-.16h-.3a.22.22,0,0,1-.17-.07.23.23,0,0,1-.06-.16V11.5a.21.21,0,0,1,.23-.23h.44a3.42,3.42,0,0,1,1.45.26,1.5,1.5,0,0,1,.77.83,4,4,0,0,1,.24,1.51,3.42,3.42,0,0,1-.19,1.21,2.69,2.69,0,0,1-.52.87,2.75,2.75,0,0,1-.73.59,5,5,0,0,1-.85.39Z"/><path d="M290.14,17a.22.22,0,0,1-.17-.07.21.21,0,0,1-.06-.16V11.5a.21.21,0,0,1,.23-.23h1.91a3.3,3.3,0,0,1,1.42.27,1.83,1.83,0,0,1,.83.82,2.87,2.87,0,0,1,.28,1.35v3a.21.21,0,0,1-.06.16.21.21,0,0,1-.17.07Zm.63-.8h2.92V13.76a1.86,1.86,0,0,0-.4-1.25,1.69,1.69,0,0,0-1.29-.44h-1.23Z"/><path d="M296.22,14.66a.22.22,0,0,1-.17-.07.21.21,0,0,1-.06-.16V11.5a.21.21,0,0,1,.23-.23h.47a.24.24,0,0,1,.17.06.25.25,0,0,1,.06.17v2.93a.21.21,0,0,1-.06.16.21.21,0,0,1-.17.07Z"/><path d="M301.24,16.23a2,2,0,0,0,1.09-.24,1.63,1.63,0,0,0,.68-.72,2.27,2.27,0,0,0,.24-1.06V11.5a.21.21,0,0,1,.23-.23h.41a.24.24,0,0,1,.17.06.25.25,0,0,1,.06.17v2.78a3.19,3.19,0,0,1-.2,1.15,2.57,2.57,0,0,1-.57.88,2.45,2.45,0,0,1-.88.56,2.85,2.85,0,0,1-1.11.17h-.75a2.29,2.29,0,0,1-1.17-.3,2.14,2.14,0,0,1-.82-.84,2.54,2.54,0,0,1-.3-1.25V11.5a.21.21,0,0,1,.23-.23H299a.23.23,0,0,1,.16.06.22.22,0,0,1,.07.17l0,2.95a1.75,1.75,0,0,0,.48,1.32,1.67,1.67,0,0,0,1.22.46ZM299,15.06l0-.73a2.42,2.42,0,0,0,1.13-.23,1.14,1.14,0,0,0,.54-.57,1.86,1.86,0,0,0,.16-.79V11.5a.25.25,0,0,1,.06-.17.22.22,0,0,1,.17-.06h.41a.23.23,0,0,1,.16.06.22.22,0,0,1,.07.17v1.28a2.42,2.42,0,0,1-.29,1.17,2,2,0,0,1-.89.82A3.19,3.19,0,0,1,299,15.06Z"/><path d="M306.33,12.09v.78a2,2,0,0,0,.09.6.41.41,0,0,0,.31.3l.37.1a.19.19,0,0,1,.12.1.46.46,0,0,1,0,.21v.25a.17.17,0,0,1-.11.16.47.47,0,0,1-.24,0l-.39-.08a1.23,1.23,0,0,1-.9-.85,3,3,0,0,1-.11-.85V11.5a.25.25,0,0,1,.06-.17.24.24,0,0,1,.17-.06h1.85a2.51,2.51,0,0,1,1.25.29,2,2,0,0,1,.76.85,3.36,3.36,0,0,1,.28,1.34c0,.1,0,.22,0,.37s0,.28,0,.38a3.35,3.35,0,0,1-.28,1.33,1.91,1.91,0,0,1-.76.85,2.41,2.41,0,0,1-1.25.3h-1.73a.22.22,0,0,1-.17-.07.21.21,0,0,1-.06-.16v-.36a.21.21,0,0,1,.23-.23h1.68a1.3,1.3,0,0,0,1.06-.45,2,2,0,0,0,.42-1.24c0-.1,0-.22,0-.35s0-.24,0-.34a2,2,0,0,0-.41-1.25,1.34,1.34,0,0,0-1.07-.44Z"/><path d="M311.44,17a.22.22,0,0,1-.17-.07.21.21,0,0,1-.06-.16V11.5a.21.21,0,0,1,.23-.23h1.94a3.29,3.29,0,0,1,1.43.27,1.88,1.88,0,0,1,.85.82,3.09,3.09,0,0,1,.28,1.37v3a.19.19,0,0,1-.07.16.2.2,0,0,1-.16.07h-.45a.19.19,0,0,1-.17-.07.21.21,0,0,1-.06-.16v-3a1.86,1.86,0,0,0-.4-1.25,1.7,1.7,0,0,0-1.3-.44h-1.21v4.68a.21.21,0,0,1-.06.16.21.21,0,0,1-.17.07Z"/><path d="M317.39,17a.18.18,0,0,1-.15-.07.21.21,0,0,1-.05-.17l.85-4.9a.24.24,0,0,1,.09-.16.19.19,0,0,1,.17,0l.4,0a.21.21,0,0,1,.16.08.19.19,0,0,1,0,.18l-.79,4.81a.28.28,0,0,1-.09.17.23.23,0,0,1-.17.07Zm2.53-4.89h-2.43a.19.19,0,0,1-.17-.07.23.23,0,0,1-.06-.16V11.5a.25.25,0,0,1,.06-.17.22.22,0,0,1,.17-.06H320a2.12,2.12,0,0,1,1.1.29,1.91,1.91,0,0,1,.76.83,2.86,2.86,0,0,1,.28,1.32v3a.19.19,0,0,1-.07.16.2.2,0,0,1-.16.07h-2.58a.22.22,0,0,1-.17-.07.21.21,0,0,1-.06-.16v-.34a.21.21,0,0,1,.23-.23h1.9V13.77a2,2,0,0,0-.18-.89,1.29,1.29,0,0,0-.48-.59A1.23,1.23,0,0,0,319.92,12.09Z"/></g></g></svg>