<svg xmlns="http://www.w3.org/2000/svg" viewBox="0 0 32.45 6.91"><defs><style>.cls-1{opacity:0.7;}.cls-2{fill:#f2dada;}</style></defs><g id="Layer_2" data-name="Layer 2"><g id="Layer_1-2" data-name="Layer 1"><g class="cls-1"><rect class="cls-2" width="32.45" height="6.91" rx="2.21"/></g><path d="M2.15,3.88V2.49h-.6V2.23h.92V3.88Z"/><path d="M4.57,5.27A1.28,1.28,0,0,1,4,5.13a1,1,0,0,1-.41-.41,1.16,1.16,0,0,1-.15-.6V2.23h.32V4.12A.9.9,0,0,0,4,4.76.8.8,0,0,0,4.57,5a.76.76,0,0,0,.6-.25.86.86,0,0,0,.24-.64V3a.62.62,0,0,0-.12-.42A.37.37,0,0,0,5,2.47a.85.85,0,0,0-.23,0l-.23.09-.06-.23a1.69,1.69,0,0,1,.28-.12,1.54,1.54,0,0,1,.3,0,.64.64,0,0,1,.52.21A.91.91,0,0,1,5.72,3v1.1a1.27,1.27,0,0,1-.14.6,1.05,1.05,0,0,1-.4.41A1.34,1.34,0,0,1,4.57,5.27Z"/><path d="M6.74,5.27H6.5l-.21,0,0-.25a2,2,0,0,0,.38,0A.45.45,0,0,0,7,4.87a.56.56,0,0,0,.12-.4v-2H6.48V2.23h1V4.49a.82.82,0,0,1-.18.58A.74.74,0,0,1,6.74,5.27Z"/><path d="M8.42,5.22l.25-2A1.16,1.16,0,0,1,8.8,2.8,1,1,0,0,1,9,2.52l0,0h0l-.31.06-.39.11-.08-.24a2.7,2.7,0,0,1,.43-.12l.46-.08.43,0a1.21,1.21,0,0,1,.88.31,1.22,1.22,0,0,1,.31.9V5.22H9.62V5h.9V3.36a.94.94,0,0,0-.21-.67.8.8,0,0,0-.63-.23.58.58,0,0,0-.46.2A.9.9,0,0,0,9,3.19l-.25,2Z"/><path d="M11.92,5.22V2.49h-.4V2.23h.72v3Z"/><path d="M14.56,5.22V3.08a.57.57,0,0,0-.16-.43A.58.58,0,0,0,14,2.49H12.88V2.23H14a1,1,0,0,1,.67.23.84.84,0,0,1,.25.65V5.22Z"/><path d="M18.08,5.22V5a1,1,0,0,0,.67-.25A.76.76,0,0,0,19,4.1V2.49H17.07V2.23h2.25V4.1a1.15,1.15,0,0,1-.15.59,1.06,1.06,0,0,1-.43.38A1.69,1.69,0,0,1,18.08,5.22Zm-.94,1.06V4.06a1.77,1.77,0,0,1,0-.37,1.83,1.83,0,0,1,.08-.25h.27a1.1,1.1,0,0,0-.06.26c0,.1,0,.21,0,.36V6.28Z"/><path d="M20.55,3.88V2.49H20V2.23h.92V3.88Z"/><path d="M21.92,5.27h-.23l-.22,0,0-.25a2.13,2.13,0,0,0,.39,0,.42.42,0,0,0,.34-.13.56.56,0,0,0,.12-.4v-2h-.67V2.23h1V4.49a.78.78,0,0,1-.19.58A.74.74,0,0,1,21.92,5.27Z"/><path d="M24.61,5.22V5a1,1,0,0,0,.66-.25.77.77,0,0,0,.26-.61V2.49H23.6V2.23h2.25V4.1a1.15,1.15,0,0,1-.15.59,1.06,1.06,0,0,1-.43.38A1.69,1.69,0,0,1,24.61,5.22Zm-.95,1.06V4.06a1.22,1.22,0,0,1,0-.37,1.82,1.82,0,0,1,.07-.25h.28A1.1,1.1,0,0,0,24,3.7c0,.1,0,.21,0,.36V6.28Z"/><path d="M27.08,3.88V2.49h-.6V2.23h.92V3.88Z"/><path d="M29.28,5.26a2.32,2.32,0,0,1-.44,0,4.21,4.21,0,0,1-.48-.12l.07-.24a2.42,2.42,0,0,0,.45.1,3.18,3.18,0,0,0,.4,0A1.1,1.1,0,0,0,30,4.76a.82.82,0,0,0,.25-.65V2.49H28.87a1.15,1.15,0,0,0-.17.4,1.61,1.61,0,0,0-.07.49v.26a.65.65,0,0,0,.21.06h.33V4h-.36l-.26,0-.23-.1V3.44a2,2,0,0,1,.08-.53,1.17,1.17,0,0,1,.2-.42h-.35V2.23h2.32V4a1.42,1.42,0,0,1-.16.68,1,1,0,0,1-.45.4A1.41,1.41,0,0,1,29.28,5.26Z"/></g></g></svg>